solid Arris_bracket
facet normal -0.9238795325112861 -1.6994558310172327e-16 0.3826834323650913
  outer loop
    vertex 19.829629131445344 -3.000000000000006 13.705904774487392
    vertex 19.330127018922195 -5.551115123125781e-15 12.499999999999996
    vertex 19.330127018922195 -3.0000000000000058 12.499999999999995
  endloop
endfacet
facet normal -0.9238795325112861 -1.6994558310172327e-16 0.3826834323650913
  outer loop
    vertex 19.330127018922195 -5.551115123125781e-15 12.499999999999996
    vertex 19.829629131445344 -3.000000000000006 13.705904774487392
    vertex 19.829629131445344 -6.0866444215823065e-15 13.705904774487392
  endloop
endfacet
facet normal -0.9914448613738104 -5.796527356774009e-17 0.13052619222005157
  outer loop
    vertex 20.000000000000004 -3.0000000000000067 14.999999999999998
    vertex 19.829629131445344 -6.0866444215823065e-15 13.705904774487392
    vertex 19.829629131445344 -3.000000000000006 13.705904774487392
  endloop
endfacet
facet normal -0.9914448613738104 -5.796527356774009e-17 0.13052619222005157
  outer loop
    vertex 19.829629131445344 -6.0866444215823065e-15 13.705904774487392
    vertex 20.000000000000004 -3.0000000000000067 14.999999999999998
    vertex 20.000000000000004 -6.6613381477509385e-15 14.999999999999998
  endloop
endfacet
facet normal -0.7933533402912352 2.703443819956777e-16 -0.6087614290087205
  outer loop
    vertex 18.53553390593274 -3.0000000000000084 18.535533905932734
    vertex 19.330127018922198 -7.771561172376094e-15 17.499999999999996
    vertex 19.330127018922198 -3.000000000000008 17.499999999999996
  endloop
endfacet
facet normal -0.7933533402912352 2.703443819956777e-16 -0.6087614290087205
  outer loop
    vertex 19.330127018922198 -7.771561172376094e-15 17.499999999999996
    vertex 18.53553390593274 -3.0000000000000084 18.535533905932734
    vertex 18.53553390593274 -8.231430606434713e-15 18.535533905932734
  endloop
endfacet
facet normal -0.9914448613738104 5.796527356774023e-17 -0.13052619222005188
  outer loop
    vertex 19.829629131445344 -3.0000000000000075 16.2940952255126
    vertex 20.000000000000004 -6.6613381477509385e-15 14.999999999999998
    vertex 20.000000000000004 -3.0000000000000067 14.999999999999998
  endloop
endfacet
facet normal -0.9914448613738104 5.796527356774023e-17 -0.13052619222005188
  outer loop
    vertex 20.000000000000004 -6.6613381477509385e-15 14.999999999999998
    vertex 19.829629131445344 -3.0000000000000075 16.2940952255126
    vertex 19.829629131445344 -7.236031873919568e-15 16.2940952255126
  endloop
endfacet
facet normal -0.923879532511287 1.6994558310172248e-16 -0.3826834323650895
  outer loop
    vertex 19.330127018922198 -3.000000000000008 17.499999999999996
    vertex 19.829629131445344 -7.236031873919568e-15 16.2940952255126
    vertex 19.829629131445344 -3.0000000000000075 16.2940952255126
  endloop
endfacet
facet normal -0.923879532511287 1.6994558310172248e-16 -0.3826834323650895
  outer loop
    vertex 19.829629131445344 -7.236031873919568e-15 16.2940952255126
    vertex 19.330127018922198 -3.000000000000008 17.499999999999996
    vertex 19.330127018922198 -7.771561172376094e-15 17.499999999999996
  endloop
endfacet
facet normal 0.0 1.0 4.440892098500626e-16
  outer loop
    vertex 12.500000000000009 -8.584300834134502e-15 19.33012701892219
    vertex 11.464466094067268 -8.231430606434713e-15 18.535533905932734
    vertex 12.500000000000005 -1.3322676295501878e-14 30.0
  endloop
endfacet
facet normal 0.0 1.0 4.440892098500626e-16
  outer loop
    vertex 0.0 -2.220446049250313e-14 50.0
    vertex 12.500000000000005 -1.3322676295501878e-14 30.0
    vertex 0.0 0.0 0.0
  endloop
endfacet
facet normal 0.0 1.0 4.440892098500626e-16
  outer loop
    vertex 12.500000000000005 -1.3322676295501878e-14 30.0
    vertex 0.0 -2.220446049250313e-14 50.0
    vertex 130.0 -2.220446049250313e-14 50.0
  endloop
endfacet
facet normal 0.0 1.0 4.440892098500626e-16
  outer loop
    vertex 0.0 0.0 0.0
    vertex 12.500000000000005 -1.3322676295501878e-14 30.0
    vertex 10.170370868554665 -7.236031873919571e-15 16.294095225512606
  endloop
endfacet
facet normal 0.0 1.0 4.440892098500626e-16
  outer loop
    vertex 0.0 0.0 0.0
    vertex 10.170370868554665 -7.236031873919571e-15 16.294095225512606
    vertex 10.000000000000004 -6.6613381477509385e-15 14.999999999999998
  endloop
endfacet
facet normal 0.0 1.0 4.440892098500626e-16
  outer loop
    vertex 10.170370868554665 -7.236031873919571e-15 16.294095225512606
    vertex 12.500000000000005 -1.3322676295501878e-14 30.0
    vertex 10.669872981077813 -7.771561172376096e-15 17.5
  endloop
endfacet
facet normal 0.0 1.0 4.440892098500626e-16
  outer loop
    vertex 10.669872981077813 -7.771561172376096e-15 17.5
    vertex 12.500000000000005 -1.3322676295501878e-14 30.0
    vertex 11.464466094067268 -8.231430606434713e-15 18.535533905932734
  endloop
endfacet
facet normal 0.0 1.0 4.440892098500626e-16
  outer loop
    vertex 12.500000000000005 -1.3322676295501878e-14 30.0
    vertex 130.0 -2.220446049250313e-14 50.0
    vertex 17.5 -1.3322676295501878e-14 30.0
  endloop
endfacet
facet normal 0.0 1.0 4.440892098500626e-16
  outer loop
    vertex 17.5 -1.3322676295501878e-14 30.0
    vertex 130.0 -2.220446049250313e-14 50.0
    vertex 17.500000000000004 -8.584300834134502e-15 19.33012701892219
  endloop
endfacet
facet normal 0.0 1.0 4.440892098500626e-16
  outer loop
    vertex 17.500000000000004 -8.584300834134502e-15 19.33012701892219
    vertex 130.0 -2.220446049250313e-14 50.0
    vertex 18.53553390593274 -8.231430606434713e-15 18.535533905932734
  endloop
endfacet
facet normal 0.0 1.0 4.440892098500626e-16
  outer loop
    vertex 18.53553390593274 -8.231430606434713e-15 18.535533905932734
    vertex 130.0 -2.220446049250313e-14 50.0
    vertex 19.330127018922198 -7.771561172376094e-15 17.499999999999996
  endloop
endfacet
facet normal 0.0 1.0 4.440892098500626e-16
  outer loop
    vertex 19.330127018922198 -7.771561172376094e-15 17.499999999999996
    vertex 130.0 -2.220446049250313e-14 50.0
    vertex 19.829629131445344 -7.236031873919568e-15 16.2940952255126
  endloop
endfacet
facet normal 0.0 1.0 4.440892098500626e-16
  outer loop
    vertex 19.829629131445344 -7.236031873919568e-15 16.2940952255126
    vertex 130.0 -2.220446049250313e-14 50.0
    vertex 20.000000000000004 -6.6613381477509385e-15 14.999999999999998
  endloop
endfacet
facet normal 0.0 1.0 4.440892098500626e-16
  outer loop
    vertex 20.000000000000004 -6.6613381477509385e-15 14.999999999999998
    vertex 130.0 -2.220446049250313e-14 50.0
    vertex 112.50000000000001 -1.3322676295501878e-14 30.0
  endloop
endfacet
facet normal 0.0 1.0 4.440892098500626e-16
  outer loop
    vertex 20.000000000000004 -6.6613381477509385e-15 14.999999999999998
    vertex 112.50000000000001 -1.3322676295501878e-14 30.0
    vertex 110.17037086855467 -7.236031873919573e-15 16.29409522551261
  endloop
endfacet
facet normal 0.0 1.0 4.440892098500626e-16
  outer loop
    vertex 20.000000000000004 -6.6613381477509385e-15 14.999999999999998
    vertex 110.17037086855467 -7.236031873919573e-15 16.29409522551261
    vertex 110.0 -6.6613381477509385e-15 14.999999999999998
  endloop
endfacet
facet normal 0.0 1.0 4.440892098500626e-16
  outer loop
    vertex 110.17037086855467 -7.236031873919573e-15 16.29409522551261
    vertex 112.50000000000001 -1.3322676295501878e-14 30.0
    vertex 110.6698729810778 -7.771561172376099e-15 17.500000000000007
  endloop
endfacet
facet normal 0.0 1.0 4.440892098500626e-16
  outer loop
    vertex 110.6698729810778 -7.771561172376099e-15 17.500000000000007
    vertex 112.50000000000001 -1.3322676295501878e-14 30.0
    vertex 111.46446609406726 -8.231430606434719e-15 18.53553390593275
  endloop
endfacet
facet normal 0.0 1.0 4.440892098500626e-16
  outer loop
    vertex 112.50000000000001 -1.3322676295501878e-14 30.0
    vertex 130.0 -2.220446049250313e-14 50.0
    vertex 117.50000000000001 -1.3322676295501878e-14 30.0
  endloop
endfacet
facet normal 0.0 1.0 4.440892098500626e-16
  outer loop
    vertex 117.50000000000001 -1.3322676295501878e-14 30.0
    vertex 130.0 -2.220446049250313e-14 50.0
    vertex 117.50000000000003 -8.584300834134507e-15 19.3301270189222
  endloop
endfacet
facet normal 0.0 1.0 4.440892098500626e-16
  outer loop
    vertex 117.50000000000003 -8.584300834134507e-15 19.3301270189222
    vertex 130.0 -2.220446049250313e-14 50.0
    vertex 118.53553390593277 -8.231430606434716e-15 18.53553390593274
  endloop
endfacet
facet normal 0.0 1.0 4.440892098500626e-16
  outer loop
    vertex 118.53553390593277 -8.231430606434716e-15 18.53553390593274
    vertex 130.0 -2.220446049250313e-14 50.0
    vertex 119.33012701892223 -7.771561172376096e-15 17.5
  endloop
endfacet
facet normal 0.0 1.0 4.440892098500626e-16
  outer loop
    vertex 119.33012701892223 -7.771561172376096e-15 17.5
    vertex 130.0 -2.220446049250313e-14 50.0
    vertex 119.82962913144536 -7.23603187391957e-15 16.294095225512603
  endloop
endfacet
facet normal 0.0 1.0 4.440892098500626e-16
  outer loop
    vertex 119.82962913144536 -7.23603187391957e-15 16.294095225512603
    vertex 130.0 -2.220446049250313e-14 50.0
    vertex 120.00000000000003 -6.6613381477509385e-15 14.999999999999998
  endloop
endfacet
facet normal 0.0 1.0 4.440892098500626e-16
  outer loop
    vertex 0.0 0.0 0.0
    vertex 15.000000000000004 -4.440892098500625e-15 9.999999999999998
    vertex 130.0 0.0 0.0
  endloop
endfacet
facet normal 0.0 1.0 4.440892098500626e-16
  outer loop
    vertex 15.000000000000004 -4.440892098500625e-15 9.999999999999998
    vertex 0.0 0.0 0.0
    vertex 13.705904774487399 -4.516551962898533e-15 10.170370868554658
  endloop
endfacet
facet normal 0.0 1.0 4.440892098500626e-16
  outer loop
    vertex 13.705904774487399 -4.516551962898533e-15 10.170370868554658
    vertex 0.0 0.0 0.0
    vertex 12.500000000000004 -4.738375461367375e-15 10.669872981077805
  endloop
endfacet
facet normal 0.0 1.0 4.440892098500626e-16
  outer loop
    vertex 12.500000000000004 -4.738375461367375e-15 10.669872981077805
    vertex 0.0 0.0 0.0
    vertex 11.464466094067268 -5.091245689067163e-15 11.46446609406726
  endloop
endfacet
facet normal 0.0 1.0 4.440892098500626e-16
  outer loop
    vertex 11.464466094067268 -5.091245689067163e-15 11.46446609406726
    vertex 0.0 0.0 0.0
    vertex 10.66987298107781 -5.551115123125782e-15 12.499999999999998
  endloop
endfacet
facet normal 0.0 1.0 4.440892098500626e-16
  outer loop
    vertex 10.66987298107781 -5.551115123125782e-15 12.499999999999998
    vertex 0.0 0.0 0.0
    vertex 10.170370868554663 -6.086644421582308e-15 13.705904774487395
  endloop
endfacet
facet normal 0.0 1.0 4.440892098500626e-16
  outer loop
    vertex 10.170370868554663 -6.086644421582308e-15 13.705904774487395
    vertex 0.0 0.0 0.0
    vertex 10.000000000000004 -6.6613381477509385e-15 14.999999999999998
  endloop
endfacet
facet normal 0.0 1.0 4.440892098500626e-16
  outer loop
    vertex 130.0 0.0 0.0
    vertex 15.000000000000004 -4.440892098500625e-15 9.999999999999998
    vertex 16.294095225512606 -4.516551962898533e-15 10.170370868554658
  endloop
endfacet
facet normal 0.0 1.0 4.440892098500626e-16
  outer loop
    vertex 130.0 0.0 0.0
    vertex 16.294095225512606 -4.516551962898533e-15 10.170370868554658
    vertex 17.5 -4.738375461367375e-15 10.669872981077805
  endloop
endfacet
facet normal 0.0 1.0 4.440892098500626e-16
  outer loop
    vertex 130.0 0.0 0.0
    vertex 17.5 -4.738375461367375e-15 10.669872981077805
    vertex 18.535533905932738 -5.091245689067163e-15 11.46446609406726
  endloop
endfacet
facet normal 0.0 1.0 4.440892098500626e-16
  outer loop
    vertex 130.0 0.0 0.0
    vertex 18.535533905932738 -5.091245689067163e-15 11.46446609406726
    vertex 19.330127018922195 -5.551115123125781e-15 12.499999999999996
  endloop
endfacet
facet normal 0.0 1.0 4.440892098500626e-16
  outer loop
    vertex 130.0 0.0 0.0
    vertex 19.330127018922195 -5.551115123125781e-15 12.499999999999996
    vertex 19.829629131445344 -6.0866444215823065e-15 13.705904774487392
  endloop
endfacet
facet normal 0.0 1.0 4.440892098500626e-16
  outer loop
    vertex 130.0 0.0 0.0
    vertex 19.829629131445344 -6.0866444215823065e-15 13.705904774487392
    vertex 20.000000000000004 -6.6613381477509385e-15 14.999999999999998
  endloop
endfacet
facet normal 0.0 1.0 4.440892098500626e-16
  outer loop
    vertex 130.0 0.0 0.0
    vertex 20.000000000000004 -6.6613381477509385e-15 14.999999999999998
    vertex 112.5 -4.738375461367369e-15 10.669872981077793
  endloop
endfacet
facet normal 0.0 1.0 4.440892098500626e-16
  outer loop
    vertex 112.5 -4.738375461367369e-15 10.669872981077793
    vertex 20.000000000000004 -6.6613381477509385e-15 14.999999999999998
    vertex 111.46446609406726 -5.091245689067159e-15 11.464466094067252
  endloop
endfacet
facet normal 0.0 1.0 4.440892098500626e-16
  outer loop
    vertex 111.46446609406726 -5.091245689067159e-15 11.464466094067252
    vertex 20.000000000000004 -6.6613381477509385e-15 14.999999999999998
    vertex 110.6698729810778 -5.551115123125779e-15 12.499999999999991
  endloop
endfacet
facet normal 0.0 1.0 4.440892098500626e-16
  outer loop
    vertex 110.6698729810778 -5.551115123125779e-15 12.499999999999991
    vertex 20.000000000000004 -6.6613381477509385e-15 14.999999999999998
    vertex 110.17037086855467 -6.086644421582306e-15 13.70590477448739
  endloop
endfacet
facet normal 0.0 1.0 4.440892098500626e-16
  outer loop
    vertex 110.17037086855467 -6.086644421582306e-15 13.70590477448739
    vertex 20.000000000000004 -6.6613381477509385e-15 14.999999999999998
    vertex 110.0 -6.6613381477509385e-15 14.999999999999998
  endloop
endfacet
facet normal 0.0 1.0 4.440892098500626e-16
  outer loop
    vertex 130.0 0.0 0.0
    vertex 112.5 -4.738375461367369e-15 10.669872981077793
    vertex 113.70590477448741 -4.516551962898527e-15 10.170370868554643
  endloop
endfacet
facet normal 0.0 1.0 4.440892098500626e-16
  outer loop
    vertex 130.0 0.0 0.0
    vertex 113.70590477448741 -4.516551962898527e-15 10.170370868554643
    vertex 115.00000000000001 -4.440892098500619e-15 9.999999999999984
  endloop
endfacet
facet normal 0.0 1.0 4.440892098500626e-16
  outer loop
    vertex 130.0 0.0 0.0
    vertex 115.00000000000001 -4.440892098500619e-15 9.999999999999984
    vertex 116.29409522551262 -4.516551962898527e-15 10.170370868554643
  endloop
endfacet
facet normal 0.0 1.0 4.440892098500626e-16
  outer loop
    vertex 130.0 0.0 0.0
    vertex 116.29409522551262 -4.516551962898527e-15 10.170370868554643
    vertex 117.50000000000001 -4.738375461367369e-15 10.669872981077793
  endloop
endfacet
facet normal 0.0 1.0 4.440892098500626e-16
  outer loop
    vertex 130.0 0.0 0.0
    vertex 117.50000000000001 -4.738375461367369e-15 10.669872981077793
    vertex 118.53553390593277 -5.091245689067159e-15 11.464466094067252
  endloop
endfacet
facet normal 0.0 1.0 4.440892098500626e-16
  outer loop
    vertex 130.0 0.0 0.0
    vertex 118.53553390593277 -5.091245689067159e-15 11.464466094067252
    vertex 119.33012701892223 -5.551115123125778e-15 12.49999999999999
  endloop
endfacet
facet normal 0.0 1.0 4.440892098500626e-16
  outer loop
    vertex 130.0 0.0 0.0
    vertex 119.33012701892223 -5.551115123125778e-15 12.49999999999999
    vertex 119.82962913144536 -6.086644421582306e-15 13.70590477448739
  endloop
endfacet
facet normal 0.0 1.0 4.440892098500626e-16
  outer loop
    vertex 130.0 0.0 0.0
    vertex 119.82962913144536 -6.086644421582306e-15 13.70590477448739
    vertex 120.00000000000003 -6.6613381477509385e-15 14.999999999999998
  endloop
endfacet
facet normal 0.0 1.0 4.440892098500626e-16
  outer loop
    vertex 130.0 0.0 0.0
    vertex 120.00000000000003 -6.6613381477509385e-15 14.999999999999998
    vertex 130.0 -2.220446049250313e-14 50.0
  endloop
endfacet
facet normal 0.0 1.0 4.440892098500626e-16
  outer loop
    vertex 112.50000000000001 -8.584300834134508e-15 19.330127018922205
    vertex 111.46446609406726 -8.231430606434719e-15 18.53553390593275
    vertex 112.50000000000001 -1.3322676295501878e-14 30.0
  endloop
endfacet
facet normal -1.0 -0.0 0.0
  outer loop
    vertex 30.000000000000014 -23.000000000000018 24.999999999999968
    vertex 30.000000000000014 -3.000000000000002 4.9999999999999964
    vertex 30.000000000000014 -23.000000000000004 4.9999999999999885
  endloop
endfacet
facet normal -1.0 -0.0 0.0
  outer loop
    vertex 30.000000000000014 -3.000000000000002 4.9999999999999964
    vertex 30.000000000000014 -23.000000000000018 24.999999999999968
    vertex 30.000000000000014 -3.0000000000000115 24.99999999999998
  endloop
endfacet
facet normal 1.0 0.0 0.0
  outer loop
    vertex 100.0 -3.0000000000000115 24.99999999999998
    vertex 100.0 -23.000000000000004 4.9999999999999885
    vertex 100.0 -3.000000000000002 4.9999999999999964
  endloop
endfacet
facet normal 1.0 0.0 0.0
  outer loop
    vertex 100.0 -23.000000000000004 4.9999999999999885
    vertex 100.0 -3.0000000000000115 24.99999999999998
    vertex 100.0 -23.000000000000018 24.999999999999968
  endloop
endfacet
facet normal 0.0 -1.0 -4.440892098500626e-16
  outer loop
    vertex 100.0 -23.000000000000004 4.9999999999999885
    vertex 30.000000000000014 -23.000000000000018 24.999999999999968
    vertex 30.000000000000014 -23.000000000000004 4.9999999999999885
  endloop
endfacet
facet normal 0.0 -1.0 -4.440892098500626e-16
  outer loop
    vertex 30.000000000000014 -23.000000000000018 24.999999999999968
    vertex 100.0 -23.000000000000004 4.9999999999999885
    vertex 100.0 -23.000000000000018 24.999999999999968
  endloop
endfacet
facet normal 0.0 -4.440892098500626e-16 1.0
  outer loop
    vertex 0.0 -57.99999999999999 4.999999999999972
    vertex 30.000000000000014 -3.000000000000002 4.9999999999999964
    vertex 0.0 -3.000000000000002 4.9999999999999964
  endloop
endfacet
facet normal 0.0 -4.440892098500626e-16 1.0
  outer loop
    vertex 30.000000000000014 -3.000000000000002 4.9999999999999964
    vertex 0.0 -57.99999999999999 4.999999999999972
    vertex 20.000000000000007 -29.000000000000004 4.999999999999985
  endloop
endfacet
facet normal 0.0 -4.440892098500626e-16 1.0
  outer loop
    vertex 30.000000000000014 -3.000000000000002 4.9999999999999964
    vertex 20.000000000000007 -29.000000000000004 4.999999999999985
    vertex 30.000000000000014 -23.000000000000004 4.9999999999999885
  endloop
endfacet
facet normal 0.0 -4.440892098500626e-16 1.0
  outer loop
    vertex 30.000000000000014 -23.000000000000004 4.9999999999999885
    vertex 20.000000000000007 -29.000000000000004 4.999999999999985
    vertex 100.0 -23.000000000000004 4.9999999999999885
  endloop
endfacet
facet normal 0.0 -4.440892098500626e-16 1.0
  outer loop
    vertex 20.000000000000007 -29.000000000000004 4.999999999999985
    vertex 0.0 -57.99999999999999 4.999999999999972
    vertex 20.000000000000007 -46.00000000000001 4.999999999999978
  endloop
endfacet
facet normal 0.0 -4.440892098500626e-16 1.0
  outer loop
    vertex 20.000000000000007 -46.00000000000001 4.999999999999978
    vertex 0.0 -57.99999999999999 4.999999999999972
    vertex 110.0 -46.00000000000001 4.999999999999978
  endloop
endfacet
facet normal 0.0 -4.440892098500626e-16 1.0
  outer loop
    vertex 100.0 -23.000000000000004 4.9999999999999885
    vertex 130.0 -3.000000000000002 4.9999999999999964
    vertex 100.0 -3.000000000000002 4.9999999999999964
  endloop
endfacet
facet normal 0.0 -4.440892098500626e-16 1.0
  outer loop
    vertex 130.0 -3.000000000000002 4.9999999999999964
    vertex 100.0 -23.000000000000004 4.9999999999999885
    vertex 110.0 -29.000000000000004 4.999999999999985
  endloop
endfacet
facet normal 0.0 -4.440892098500626e-16 1.0
  outer loop
    vertex 130.0 -3.000000000000002 4.9999999999999964
    vertex 110.0 -29.000000000000004 4.999999999999985
    vertex 130.0 -57.99999999999999 4.999999999999972
  endloop
endfacet
facet normal 0.0 -4.440892098500626e-16 1.0
  outer loop
    vertex 110.0 -29.000000000000004 4.999999999999985
    vertex 100.0 -23.000000000000004 4.9999999999999885
    vertex 20.000000000000007 -29.000000000000004 4.999999999999985
  endloop
endfacet
facet normal 0.0 -4.440892098500626e-16 1.0
  outer loop
    vertex 130.0 -57.99999999999999 4.999999999999972
    vertex 110.0 -29.000000000000004 4.999999999999985
    vertex 110.0 -46.00000000000001 4.999999999999978
  endloop
endfacet
facet normal 0.0 -4.440892098500626e-16 1.0
  outer loop
    vertex 130.0 -57.99999999999999 4.999999999999972
    vertex 110.0 -46.00000000000001 4.999999999999978
    vertex 0.0 -57.99999999999999 4.999999999999972
  endloop
endfacet
facet normal 0.0 1.0 4.440892098500626e-16
  outer loop
    vertex 130.0 -58.00000000000001 24.999999999999957
    vertex 0.0 -57.99999999999999 4.999999999999972
    vertex 0.0 -58.00000000000001 24.999999999999957
  endloop
endfacet
facet normal 0.0 1.0 4.440892098500626e-16
  outer loop
    vertex 0.0 -57.99999999999999 4.999999999999972
    vertex 130.0 -58.00000000000001 24.999999999999957
    vertex 130.0 -57.99999999999999 4.999999999999972
  endloop
endfacet
facet normal 0.9238795325112903 -1.6994558310171885e-16 0.38268343236508134
  outer loop
    vertex 110.17037086855467 -6.086644421582306e-15 13.70590477448739
    vertex 110.6698729810778 -3.0000000000000058 12.49999999999999
    vertex 110.6698729810778 -5.551115123125779e-15 12.499999999999991
  endloop
endfacet
facet normal 0.9238795325112903 -1.6994558310171885e-16 0.38268343236508134
  outer loop
    vertex 110.6698729810778 -3.0000000000000058 12.49999999999999
    vertex 110.17037086855467 -6.086644421582306e-15 13.70590477448739
    vertex 110.17037086855467 -3.000000000000006 13.70590477448739
  endloop
endfacet
facet normal -0.6087614290087168 -3.5231965802184375e-16 0.793353340291238
  outer loop
    vertex 117.50000000000001 -3.000000000000005 10.669872981077793
    vertex 118.53553390593277 -5.091245689067159e-15 11.464466094067252
    vertex 117.50000000000001 -4.738375461367369e-15 10.669872981077793
  endloop
endfacet
facet normal -0.6087614290087168 -3.5231965802184375e-16 0.793353340291238
  outer loop
    vertex 118.53553390593277 -5.091245689067159e-15 11.464466094067252
    vertex 117.50000000000001 -3.000000000000005 10.669872981077793
    vertex 118.53553390593277 -3.000000000000005 11.46446609406725
  endloop
endfacet
facet normal 0.7933533402912317 -2.7034438199567967e-16 0.608761429008725
  outer loop
    vertex 110.6698729810778 -5.551115123125779e-15 12.499999999999991
    vertex 111.46446609406726 -3.000000000000005 11.46446609406725
    vertex 111.46446609406726 -5.091245689067159e-15 11.464466094067252
  endloop
endfacet
facet normal 0.7933533402912317 -2.7034438199567967e-16 0.608761429008725
  outer loop
    vertex 111.46446609406726 -3.000000000000005 11.46446609406725
    vertex 110.6698729810778 -5.551115123125779e-15 12.499999999999991
    vertex 110.6698729810778 -3.0000000000000058 12.49999999999999
  endloop
endfacet
facet normal 0.99144486137381 5.796527356774175e-17 -0.1305261922200553
  outer loop
    vertex 110.17037086855467 -7.236031873919573e-15 16.29409522551261
    vertex 110.0 -3.0000000000000067 14.999999999999998
    vertex 110.0 -6.6613381477509385e-15 14.999999999999998
  endloop
endfacet
facet normal 0.99144486137381 5.796527356774175e-17 -0.1305261922200553
  outer loop
    vertex 110.0 -3.0000000000000067 14.999999999999998
    vertex 110.17037086855467 -7.236031873919573e-15 16.29409522551261
    vertex 110.17037086855467 -3.0000000000000075 16.29409522551261
  endloop
endfacet
facet normal 0.13052619222005188 -4.402899650974003e-16 0.9914448613738104
  outer loop
    vertex 113.70590477448741 -3.000000000000005 10.170370868554642
    vertex 115.00000000000001 -4.440892098500619e-15 9.999999999999984
    vertex 113.70590477448741 -4.516551962898527e-15 10.170370868554643
  endloop
endfacet
facet normal 0.13052619222005188 -4.402899650974003e-16 0.9914448613738104
  outer loop
    vertex 115.00000000000001 -4.440892098500619e-15 9.999999999999984
    vertex 113.70590477448741 -3.000000000000005 10.170370868554642
    vertex 115.00000000000001 -3.000000000000005 9.999999999999982
  endloop
endfacet
facet normal -0.13052619222005188 -4.402899650974003e-16 0.9914448613738104
  outer loop
    vertex 115.00000000000001 -3.000000000000005 9.999999999999982
    vertex 116.29409522551262 -4.516551962898527e-15 10.170370868554643
    vertex 115.00000000000001 -4.440892098500619e-15 9.999999999999984
  endloop
endfacet
facet normal -0.13052619222005188 -4.402899650974003e-16 0.9914448613738104
  outer loop
    vertex 116.29409522551262 -4.516551962898527e-15 10.170370868554643
    vertex 115.00000000000001 -3.000000000000005 9.999999999999982
    vertex 116.29409522551262 -3.000000000000005 10.170370868554642
  endloop
endfacet
facet normal -0.3826834323650921 -4.102849315895822e-16 0.923879532511286
  outer loop
    vertex 116.29409522551262 -3.000000000000005 10.170370868554642
    vertex 117.50000000000001 -4.738375461367369e-15 10.669872981077793
    vertex 116.29409522551262 -4.516551962898527e-15 10.170370868554643
  endloop
endfacet
facet normal -0.3826834323650921 -4.102849315895822e-16 0.923879532511286
  outer loop
    vertex 117.50000000000001 -4.738375461367369e-15 10.669872981077793
    vertex 116.29409522551262 -3.000000000000005 10.170370868554642
    vertex 117.50000000000001 -3.000000000000005 10.669872981077793
  endloop
endfacet
facet normal 0.382683432365086 -4.102849315895833e-16 0.9238795325112884
  outer loop
    vertex 112.5 -3.000000000000005 10.669872981077793
    vertex 113.70590477448741 -4.516551962898527e-15 10.170370868554643
    vertex 112.5 -4.738375461367369e-15 10.669872981077793
  endloop
endfacet
facet normal 0.382683432365086 -4.102849315895833e-16 0.9238795325112884
  outer loop
    vertex 113.70590477448741 -4.516551962898527e-15 10.170370868554643
    vertex 112.5 -3.000000000000005 10.669872981077793
    vertex 113.70590477448741 -3.000000000000005 10.170370868554642
  endloop
endfacet
facet normal 0.99144486137381 -5.796527356774187e-17 0.13052619222005557
  outer loop
    vertex 110.0 -6.6613381477509385e-15 14.999999999999998
    vertex 110.17037086855467 -3.000000000000006 13.70590477448739
    vertex 110.17037086855467 -6.086644421582306e-15 13.70590477448739
  endloop
endfacet
facet normal 0.99144486137381 -5.796527356774187e-17 0.13052619222005557
  outer loop
    vertex 110.17037086855467 -3.000000000000006 13.70590477448739
    vertex 110.0 -6.6613381477509385e-15 14.999999999999998
    vertex 110.0 -3.0000000000000067 14.999999999999998
  endloop
endfacet
facet normal 0.6087614290087252 -3.52319658021841e-16 0.7933533402912318
  outer loop
    vertex 111.46446609406726 -3.000000000000005 11.46446609406725
    vertex 112.5 -4.738375461367369e-15 10.669872981077793
    vertex 111.46446609406726 -5.091245689067159e-15 11.464466094067252
  endloop
endfacet
facet normal 0.6087614290087252 -3.52319658021841e-16 0.7933533402912318
  outer loop
    vertex 112.5 -4.738375461367369e-15 10.669872981077793
    vertex 111.46446609406726 -3.000000000000005 11.46446609406725
    vertex 112.5 -3.000000000000005 10.669872981077793
  endloop
endfacet
facet normal -0.7933533402912314 -2.703443819956799e-16 0.6087614290087255
  outer loop
    vertex 119.33012701892223 -3.0000000000000058 12.499999999999988
    vertex 118.53553390593277 -5.091245689067159e-15 11.464466094067252
    vertex 118.53553390593277 -3.000000000000005 11.46446609406725
  endloop
endfacet
facet normal -0.7933533402912314 -2.703443819956799e-16 0.6087614290087255
  outer loop
    vertex 118.53553390593277 -5.091245689067159e-15 11.464466094067252
    vertex 119.33012701892223 -3.0000000000000058 12.499999999999988
    vertex 119.33012701892223 -5.551115123125778e-15 12.49999999999999
  endloop
endfacet
facet normal 1.0 0.0 0.0
  outer loop
    vertex 130.0 -63.0 -2.7977620220553945e-14
    vertex 130.0 -57.99999999999999 4.999999999999972
    vertex 130.0 -63.00000000000001 24.99999999999995
  endloop
endfacet
facet normal 1.0 0.0 0.0
  outer loop
    vertex 130.0 -57.99999999999999 4.999999999999972
    vertex 130.0 -63.0 -2.7977620220553945e-14
    vertex 130.0 -3.000000000000002 4.9999999999999964
  endloop
endfacet
facet normal 1.0 0.0 0.0
  outer loop
    vertex 130.0 -63.00000000000001 24.99999999999995
    vertex 130.0 -57.99999999999999 4.999999999999972
    vertex 130.0 -58.00000000000001 24.999999999999957
  endloop
endfacet
facet normal 1.0 0.0 0.0
  outer loop
    vertex 130.0 0.0 0.0
    vertex 130.0 -3.000000000000002 4.9999999999999964
    vertex 130.0 -57.99999999999999 -2.575717417130363e-14
  endloop
endfacet
facet normal 1.0 0.0 0.0
  outer loop
    vertex 130.0 -3.000000000000002 4.9999999999999964
    vertex 130.0 0.0 0.0
    vertex 130.0 -2.220446049250313e-14 50.0
  endloop
endfacet
facet normal 1.0 0.0 0.0
  outer loop
    vertex 130.0 -57.99999999999999 -2.575717417130363e-14
    vertex 130.0 -3.000000000000002 4.9999999999999964
    vertex 130.0 -63.0 -2.7977620220553945e-14
  endloop
endfacet
facet normal 1.0 0.0 0.0
  outer loop
    vertex 130.0 -3.000000000000002 4.9999999999999964
    vertex 130.0 -2.220446049250313e-14 50.0
    vertex 130.0 -3.000000000000022 50.0
  endloop
endfacet
facet normal -0.6087614290087265 3.5231965802184055e-16 -0.7933533402912308
  outer loop
    vertex 118.53553390593277 -3.0000000000000084 18.53553390593274
    vertex 117.50000000000003 -8.584300834134507e-15 19.3301270189222
    vertex 118.53553390593277 -8.231430606434716e-15 18.53553390593274
  endloop
endfacet
facet normal -0.6087614290087265 3.5231965802184055e-16 -0.7933533402912308
  outer loop
    vertex 117.50000000000003 -8.584300834134507e-15 19.3301270189222
    vertex 118.53553390593277 -3.0000000000000084 18.53553390593274
    vertex 117.50000000000003 -3.0000000000000084 19.3301270189222
  endloop
endfacet
facet normal -1.0 9.389552728578821e-31 -2.11433930848016e-15
  outer loop
    vertex 117.50000000000001 -3.0000000000000133 30.0
    vertex 117.50000000000003 -8.584300834134507e-15 19.3301270189222
    vertex 117.50000000000003 -3.0000000000000084 19.3301270189222
  endloop
endfacet
facet normal -1.0 9.389552728578821e-31 -2.11433930848016e-15
  outer loop
    vertex 117.50000000000003 -8.584300834134507e-15 19.3301270189222
    vertex 117.50000000000001 -3.0000000000000133 30.0
    vertex 117.50000000000001 -1.3322676295501878e-14 30.0
  endloop
endfacet
facet normal 0.0 4.440892098500626e-16 -1.0
  outer loop
    vertex 130.0 0.0 0.0
    vertex 110.0 -29.000000000000004 -1.8873791418627878e-16
    vertex 0.0 0.0 0.0
  endloop
endfacet
facet normal 0.0 4.440892098500626e-16 -1.0
  outer loop
    vertex 110.0 -29.000000000000004 -1.8873791418627878e-16
    vertex 130.0 0.0 0.0
    vertex 130.0 -57.99999999999999 -2.575717417130363e-14
  endloop
endfacet
facet normal 0.0 4.440892098500626e-16 -1.0
  outer loop
    vertex 110.0 -29.000000000000004 -1.8873791418627878e-16
    vertex 130.0 -57.99999999999999 -2.575717417130363e-14
    vertex 110.0 -46.00000000000001 -7.738254481637345e-15
  endloop
endfacet
facet normal 0.0 4.440892098500626e-16 -1.0
  outer loop
    vertex 110.0 -46.00000000000001 -7.738254481637345e-15
    vertex 130.0 -57.99999999999999 -2.575717417130363e-14
    vertex 20.000000000000007 -46.00000000000001 -7.738254481637345e-15
  endloop
endfacet
facet normal 0.0 4.440892098500626e-16 -1.0
  outer loop
    vertex 0.0 0.0 0.0
    vertex 20.000000000000007 -29.000000000000004 -1.8873791418627878e-16
    vertex 0.0 -57.99999999999999 -2.575717417130363e-14
  endloop
endfacet
facet normal 0.0 4.440892098500626e-16 -1.0
  outer loop
    vertex 20.000000000000007 -29.000000000000004 -1.8873791418627878e-16
    vertex 0.0 0.0 0.0
    vertex 110.0 -29.000000000000004 -1.8873791418627878e-16
  endloop
endfacet
facet normal 0.0 4.440892098500626e-16 -1.0
  outer loop
    vertex 0.0 -57.99999999999999 -2.575717417130363e-14
    vertex 20.000000000000007 -29.000000000000004 -1.8873791418627878e-16
    vertex 20.000000000000007 -46.00000000000001 -7.738254481637345e-15
  endloop
endfacet
facet normal 0.0 4.440892098500626e-16 -1.0
  outer loop
    vertex 0.0 -57.99999999999999 -2.575717417130363e-14
    vertex 20.000000000000007 -46.00000000000001 -7.738254481637345e-15
    vertex 130.0 -57.99999999999999 -2.575717417130363e-14
  endloop
endfacet
facet normal -1.0 0.0 0.0
  outer loop
    vertex 0.0 -63.00000000000001 24.99999999999995
    vertex 0.0 -57.99999999999999 -2.575717417130363e-14
    vertex 0.0 -63.0 -2.7977620220553945e-14
  endloop
endfacet
facet normal -1.0 0.0 0.0
  outer loop
    vertex 0.0 -57.99999999999999 -2.575717417130363e-14
    vertex 0.0 -63.00000000000001 24.99999999999995
    vertex 0.0 -57.99999999999999 4.999999999999972
  endloop
endfacet
facet normal -1.0 0.0 0.0
  outer loop
    vertex 0.0 -57.99999999999999 -2.575717417130363e-14
    vertex 0.0 -57.99999999999999 4.999999999999972
    vertex 0.0 0.0 0.0
  endloop
endfacet
facet normal -1.0 0.0 0.0
  outer loop
    vertex 0.0 -57.99999999999999 4.999999999999972
    vertex 0.0 -63.00000000000001 24.99999999999995
    vertex 0.0 -58.00000000000001 24.999999999999957
  endloop
endfacet
facet normal -1.0 0.0 0.0
  outer loop
    vertex 0.0 0.0 0.0
    vertex 0.0 -3.000000000000002 4.9999999999999964
    vertex 0.0 -2.220446049250313e-14 50.0
  endloop
endfacet
facet normal -1.0 0.0 0.0
  outer loop
    vertex 0.0 -3.000000000000002 4.9999999999999964
    vertex 0.0 0.0 0.0
    vertex 0.0 -57.99999999999999 4.999999999999972
  endloop
endfacet
facet normal -1.0 0.0 0.0
  outer loop
    vertex 0.0 -2.220446049250313e-14 50.0
    vertex 0.0 -3.000000000000002 4.9999999999999964
    vertex 0.0 -3.000000000000022 50.0
  endloop
endfacet
facet normal -0.3826834323650895 -4.1028493158958266e-16 0.923879532511287
  outer loop
    vertex 16.294095225512606 -3.000000000000005 10.170370868554656
    vertex 17.5 -4.738375461367375e-15 10.669872981077805
    vertex 16.294095225512606 -4.516551962898533e-15 10.170370868554658
  endloop
endfacet
facet normal -0.3826834323650895 -4.1028493158958266e-16 0.923879532511287
  outer loop
    vertex 17.5 -4.738375461367375e-15 10.669872981077805
    vertex 16.294095225512606 -3.000000000000005 10.170370868554656
    vertex 17.5 -3.000000000000005 10.669872981077804
  endloop
endfacet
facet normal -0.7933533402912352 -2.703443819956777e-16 0.6087614290087205
  outer loop
    vertex 19.330127018922195 -3.0000000000000058 12.499999999999995
    vertex 18.535533905932738 -5.091245689067163e-15 11.46446609406726
    vertex 18.535533905932738 -3.000000000000005 11.464466094067259
  endloop
endfacet
facet normal -0.7933533402912352 -2.703443819956777e-16 0.6087614290087205
  outer loop
    vertex 18.535533905932738 -5.091245689067163e-15 11.46446609406726
    vertex 19.330127018922195 -3.0000000000000058 12.499999999999995
    vertex 19.330127018922195 -5.551115123125781e-15 12.499999999999996
  endloop
endfacet
facet normal 0.6087614290087195 3.523196580218428e-16 -0.7933533402912359
  outer loop
    vertex 12.500000000000009 -3.0000000000000084 19.33012701892219
    vertex 11.464466094067268 -8.231430606434713e-15 18.535533905932734
    vertex 12.500000000000009 -8.584300834134502e-15 19.33012701892219
  endloop
endfacet
facet normal 0.6087614290087195 3.523196580218428e-16 -0.7933533402912359
  outer loop
    vertex 11.464466094067268 -8.231430606434713e-15 18.535533905932734
    vertex 12.500000000000009 -3.0000000000000084 19.33012701892219
    vertex 11.464466094067268 -3.0000000000000084 18.535533905932734
  endloop
endfacet
facet normal -0.608761429008722 3.52319658021842e-16 -0.793353340291234
  outer loop
    vertex 18.53553390593274 -3.0000000000000084 18.535533905932734
    vertex 17.500000000000004 -8.584300834134502e-15 19.33012701892219
    vertex 18.53553390593274 -8.231430606434713e-15 18.535533905932734
  endloop
endfacet
facet normal -0.608761429008722 3.52319658021842e-16 -0.793353340291234
  outer loop
    vertex 17.500000000000004 -8.584300834134502e-15 19.33012701892219
    vertex 18.53553390593274 -3.0000000000000084 18.535533905932734
    vertex 17.500000000000004 -3.0000000000000084 19.33012701892219
  endloop
endfacet
facet normal 0.9914448613738104 -5.796527356774023e-17 0.13052619222005188
  outer loop
    vertex 10.000000000000004 -6.6613381477509385e-15 14.999999999999998
    vertex 10.170370868554663 -3.000000000000006 13.705904774487395
    vertex 10.170370868554663 -6.086644421582308e-15 13.705904774487395
  endloop
endfacet
facet normal 0.9914448613738104 -5.796527356774023e-17 0.13052619222005188
  outer loop
    vertex 10.170370868554663 -3.000000000000006 13.705904774487395
    vertex 10.000000000000004 -6.6613381477509385e-15 14.999999999999998
    vertex 10.000000000000004 -3.0000000000000067 14.999999999999998
  endloop
endfacet
facet normal 0.38268343236508984 -4.1028493158958256e-16 0.9238795325112867
  outer loop
    vertex 12.500000000000004 -3.000000000000005 10.669872981077804
    vertex 13.705904774487399 -4.516551962898533e-15 10.170370868554658
    vertex 12.500000000000004 -4.738375461367375e-15 10.669872981077805
  endloop
endfacet
facet normal 0.38268343236508984 -4.1028493158958256e-16 0.9238795325112867
  outer loop
    vertex 13.705904774487399 -4.516551962898533e-15 10.170370868554658
    vertex 12.500000000000004 -3.000000000000005 10.669872981077804
    vertex 13.705904774487399 -3.000000000000005 10.170370868554656
  endloop
endfacet
facet normal 0.0 4.440892098500626e-16 -1.0
  outer loop
    vertex 17.5 -3.0000000000000133 30.0
    vertex 12.500000000000005 -1.3322676295501878e-14 30.0
    vertex 17.5 -1.3322676295501878e-14 30.0
  endloop
endfacet
facet normal 0.0 4.440892098500626e-16 -1.0
  outer loop
    vertex 12.500000000000005 -1.3322676295501878e-14 30.0
    vertex 17.5 -3.0000000000000133 30.0
    vertex 12.500000000000005 -3.0000000000000133 30.0
  endloop
endfacet
facet normal 0.7933533402912352 2.703443819956777e-16 -0.6087614290087205
  outer loop
    vertex 11.464466094067268 -8.231430606434713e-15 18.535533905932734
    vertex 10.669872981077813 -3.000000000000008 17.5
    vertex 10.669872981077813 -7.771561172376096e-15 17.5
  endloop
endfacet
facet normal 0.7933533402912352 2.703443819956777e-16 -0.6087614290087205
  outer loop
    vertex 10.669872981077813 -3.000000000000008 17.5
    vertex 11.464466094067268 -8.231430606434713e-15 18.535533905932734
    vertex 11.464466094067268 -3.0000000000000084 18.535533905932734
  endloop
endfacet
facet normal -0.9914448613738098 5.796527356774199e-17 -0.13052619222005585
  outer loop
    vertex 119.82962913144536 -3.0000000000000075 16.294095225512603
    vertex 120.00000000000003 -6.6613381477509385e-15 14.999999999999998
    vertex 120.00000000000003 -3.0000000000000067 14.999999999999998
  endloop
endfacet
facet normal -0.9914448613738098 5.796527356774199e-17 -0.13052619222005585
  outer loop
    vertex 120.00000000000003 -6.6613381477509385e-15 14.999999999999998
    vertex 119.82962913144536 -3.0000000000000075 16.294095225512603
    vertex 119.82962913144536 -7.23603187391957e-15 16.294095225512603
  endloop
endfacet
facet normal 0.9238795325112863 1.6994558310172322e-16 -0.38268343236509117
  outer loop
    vertex 10.669872981077813 -7.771561172376096e-15 17.5
    vertex 10.170370868554665 -3.0000000000000075 16.294095225512606
    vertex 10.170370868554665 -7.236031873919571e-15 16.294095225512606
  endloop
endfacet
facet normal 0.9238795325112863 1.6994558310172322e-16 -0.38268343236509117
  outer loop
    vertex 10.170370868554665 -3.0000000000000075 16.294095225512606
    vertex 10.669872981077813 -7.771561172376096e-15 17.5
    vertex 10.669872981077813 -3.000000000000008 17.5
  endloop
endfacet
facet normal -1.0 1.1736940910723516e-31 -2.6429241356001977e-16
  outer loop
    vertex 17.5 -3.0000000000000133 30.0
    vertex 17.500000000000004 -8.584300834134502e-15 19.33012701892219
    vertex 17.500000000000004 -3.0000000000000084 19.33012701892219
  endloop
endfacet
facet normal -1.0 1.1736940910723516e-31 -2.6429241356001977e-16
  outer loop
    vertex 17.500000000000004 -8.584300834134502e-15 19.33012701892219
    vertex 17.5 -3.0000000000000133 30.0
    vertex 17.5 -1.3322676295501878e-14 30.0
  endloop
endfacet
facet normal 0.9238795325112872 -1.6994558310172233e-16 0.38268343236508917
  outer loop
    vertex 10.170370868554663 -6.086644421582308e-15 13.705904774487395
    vertex 10.66987298107781 -3.0000000000000058 12.499999999999996
    vertex 10.66987298107781 -5.551115123125782e-15 12.499999999999998
  endloop
endfacet
facet normal 0.9238795325112872 -1.6994558310172233e-16 0.38268343236508917
  outer loop
    vertex 10.66987298107781 -3.0000000000000058 12.499999999999996
    vertex 10.170370868554663 -6.086644421582308e-15 13.705904774487395
    vertex 10.170370868554663 -3.000000000000006 13.705904774487395
  endloop
endfacet
facet normal 0.793353340291235 -2.703443819956778e-16 0.6087614290087208
  outer loop
    vertex 10.66987298107781 -5.551115123125782e-15 12.499999999999998
    vertex 11.464466094067268 -3.000000000000005 11.464466094067259
    vertex 11.464466094067268 -5.091245689067163e-15 11.46446609406726
  endloop
endfacet
facet normal 0.793353340291235 -2.703443819956778e-16 0.6087614290087208
  outer loop
    vertex 11.464466094067268 -3.000000000000005 11.464466094067259
    vertex 10.66987298107781 -5.551115123125782e-15 12.499999999999998
    vertex 10.66987298107781 -3.0000000000000058 12.499999999999996
  endloop
endfacet
facet normal 0.13052619222005157 -4.402899650974003e-16 0.9914448613738104
  outer loop
    vertex 13.705904774487399 -3.000000000000005 10.170370868554656
    vertex 15.000000000000004 -4.440892098500625e-15 9.999999999999998
    vertex 13.705904774487399 -4.516551962898533e-15 10.170370868554658
  endloop
endfacet
facet normal 0.13052619222005157 -4.402899650974003e-16 0.9914448613738104
  outer loop
    vertex 15.000000000000004 -4.440892098500625e-15 9.999999999999998
    vertex 13.705904774487399 -3.000000000000005 10.170370868554656
    vertex 15.000000000000004 -3.000000000000005 9.999999999999996
  endloop
endfacet
facet normal -0.13052619222005188 -4.402899650974003e-16 0.9914448613738104
  outer loop
    vertex 15.000000000000004 -3.000000000000005 9.999999999999996
    vertex 16.294095225512606 -4.516551962898533e-15 10.170370868554658
    vertex 15.000000000000004 -4.440892098500625e-15 9.999999999999998
  endloop
endfacet
facet normal -0.13052619222005188 -4.402899650974003e-16 0.9914448613738104
  outer loop
    vertex 16.294095225512606 -4.516551962898533e-15 10.170370868554658
    vertex 15.000000000000004 -3.000000000000005 9.999999999999996
    vertex 16.294095225512606 -3.000000000000005 10.170370868554656
  endloop
endfacet
facet normal -0.6087614290087205 -3.5231965802184247e-16 0.7933533402912352
  outer loop
    vertex 17.5 -3.000000000000005 10.669872981077804
    vertex 18.535533905932738 -5.091245689067163e-15 11.46446609406726
    vertex 17.5 -4.738375461367375e-15 10.669872981077805
  endloop
endfacet
facet normal -0.6087614290087205 -3.5231965802184247e-16 0.7933533402912352
  outer loop
    vertex 18.535533905932738 -5.091245689067163e-15 11.46446609406726
    vertex 17.5 -3.000000000000005 10.669872981077804
    vertex 18.535533905932738 -3.000000000000005 11.464466094067259
  endloop
endfacet
facet normal -0.99144486137381 -5.796527356774187e-17 0.13052619222005557
  outer loop
    vertex 120.00000000000003 -3.0000000000000067 14.999999999999998
    vertex 119.82962913144536 -6.086644421582306e-15 13.70590477448739
    vertex 119.82962913144536 -3.000000000000006 13.70590477448739
  endloop
endfacet
facet normal -0.99144486137381 -5.796527356774187e-17 0.13052619222005557
  outer loop
    vertex 119.82962913144536 -6.086644421582306e-15 13.70590477448739
    vertex 120.00000000000003 -3.0000000000000067 14.999999999999998
    vertex 120.00000000000003 -6.6613381477509385e-15 14.999999999999998
  endloop
endfacet
facet normal -0.7933533402912317 2.7034438199567967e-16 -0.608761429008725
  outer loop
    vertex 118.53553390593277 -3.0000000000000084 18.53553390593274
    vertex 119.33012701892223 -7.771561172376096e-15 17.5
    vertex 119.33012701892223 -3.000000000000008 17.5
  endloop
endfacet
facet normal -0.7933533402912317 2.7034438199567967e-16 -0.608761429008725
  outer loop
    vertex 119.33012701892223 -7.771561172376096e-15 17.5
    vertex 118.53553390593277 -3.0000000000000084 18.53553390593274
    vertex 118.53553390593277 -8.231430606434716e-15 18.53553390593274
  endloop
endfacet
facet normal -0.9238795325112905 -1.6994558310171868e-16 0.38268343236508096
  outer loop
    vertex 119.82962913144536 -3.000000000000006 13.70590477448739
    vertex 119.33012701892223 -5.551115123125778e-15 12.49999999999999
    vertex 119.33012701892223 -3.0000000000000058 12.499999999999988
  endloop
endfacet
facet normal -0.9238795325112905 -1.6994558310171868e-16 0.38268343236508096
  outer loop
    vertex 119.33012701892223 -5.551115123125778e-15 12.49999999999999
    vertex 119.82962913144536 -3.000000000000006 13.70590477448739
    vertex 119.82962913144536 -6.086644421582306e-15 13.70590477448739
  endloop
endfacet
facet normal 1.0 -1.1736940910723516e-31 2.6429241356001977e-16
  outer loop
    vertex 12.500000000000005 -1.3322676295501878e-14 30.0
    vertex 12.500000000000009 -3.0000000000000084 19.33012701892219
    vertex 12.500000000000009 -8.584300834134502e-15 19.33012701892219
  endloop
endfacet
facet normal 1.0 -1.1736940910723516e-31 2.6429241356001977e-16
  outer loop
    vertex 12.500000000000009 -3.0000000000000084 19.33012701892219
    vertex 12.500000000000005 -1.3322676295501878e-14 30.0
    vertex 12.500000000000005 -3.0000000000000133 30.0
  endloop
endfacet
facet normal -0.9238795325112903 1.6994558310171885e-16 -0.38268343236508134
  outer loop
    vertex 119.33012701892223 -3.000000000000008 17.5
    vertex 119.82962913144536 -7.23603187391957e-15 16.294095225512603
    vertex 119.82962913144536 -3.0000000000000075 16.294095225512603
  endloop
endfacet
facet normal -0.9238795325112903 1.6994558310171885e-16 -0.38268343236508134
  outer loop
    vertex 119.82962913144536 -7.23603187391957e-15 16.294095225512603
    vertex 119.33012701892223 -3.000000000000008 17.5
    vertex 119.33012701892223 -7.771561172376096e-15 17.5
  endloop
endfacet
facet normal 0.6087614290087205 -3.5231965802184247e-16 0.7933533402912352
  outer loop
    vertex 11.464466094067268 -3.000000000000005 11.464466094067259
    vertex 12.500000000000004 -4.738375461367375e-15 10.669872981077805
    vertex 11.464466094067268 -5.091245689067163e-15 11.46446609406726
  endloop
endfacet
facet normal 0.6087614290087205 -3.5231965802184247e-16 0.7933533402912352
  outer loop
    vertex 12.500000000000004 -4.738375461367375e-15 10.669872981077805
    vertex 11.464466094067268 -3.000000000000005 11.464466094067259
    vertex 12.500000000000004 -3.000000000000005 10.669872981077804
  endloop
endfacet
facet normal 0.9914448613738103 5.796527356774044e-17 -0.13052619222005235
  outer loop
    vertex 10.170370868554665 -7.236031873919571e-15 16.294095225512606
    vertex 10.000000000000004 -3.0000000000000067 14.999999999999998
    vertex 10.000000000000004 -6.6613381477509385e-15 14.999999999999998
  endloop
endfacet
facet normal 0.9914448613738103 5.796527356774044e-17 -0.13052619222005235
  outer loop
    vertex 10.000000000000004 -3.0000000000000067 14.999999999999998
    vertex 10.170370868554665 -7.236031873919571e-15 16.294095225512606
    vertex 10.170370868554665 -3.0000000000000075 16.294095225512606
  endloop
endfacet
facet normal 0.0 -1.0 -4.440892098500626e-16
  outer loop
    vertex 110.0 -29.000000000000004 -1.8873791418627878e-16
    vertex 20.000000000000007 -29.000000000000004 4.999999999999985
    vertex 20.000000000000007 -29.000000000000004 -1.8873791418627878e-16
  endloop
endfacet
facet normal 0.0 -1.0 -4.440892098500626e-16
  outer loop
    vertex 20.000000000000007 -29.000000000000004 4.999999999999985
    vertex 110.0 -29.000000000000004 -1.8873791418627878e-16
    vertex 110.0 -29.000000000000004 4.999999999999985
  endloop
endfacet
facet normal 0.0 1.0 4.440892098500626e-16
  outer loop
    vertex 110.0 -46.00000000000001 4.999999999999978
    vertex 20.000000000000007 -46.00000000000001 -7.738254481637345e-15
    vertex 20.000000000000007 -46.00000000000001 4.999999999999978
  endloop
endfacet
facet normal 0.0 1.0 4.440892098500626e-16
  outer loop
    vertex 20.000000000000007 -46.00000000000001 -7.738254481637345e-15
    vertex 110.0 -46.00000000000001 4.999999999999978
    vertex 110.0 -46.00000000000001 -7.738254481637345e-15
  endloop
endfacet
facet normal 1.0 0.0 0.0
  outer loop
    vertex 20.000000000000007 -29.000000000000004 4.999999999999985
    vertex 20.000000000000007 -46.00000000000001 -7.738254481637345e-15
    vertex 20.000000000000007 -29.000000000000004 -1.8873791418627878e-16
  endloop
endfacet
facet normal 1.0 0.0 0.0
  outer loop
    vertex 20.000000000000007 -46.00000000000001 -7.738254481637345e-15
    vertex 20.000000000000007 -29.000000000000004 4.999999999999985
    vertex 20.000000000000007 -46.00000000000001 4.999999999999978
  endloop
endfacet
facet normal -1.0 0.0 0.0
  outer loop
    vertex 110.0 -46.00000000000001 4.999999999999978
    vertex 110.0 -29.000000000000004 -1.8873791418627878e-16
    vertex 110.0 -46.00000000000001 -7.738254481637345e-15
  endloop
endfacet
facet normal -1.0 0.0 0.0
  outer loop
    vertex 110.0 -29.000000000000004 -1.8873791418627878e-16
    vertex 110.0 -46.00000000000001 4.999999999999978
    vertex 110.0 -29.000000000000004 4.999999999999985
  endloop
endfacet
facet normal 0.7933533402912317 2.7034438199567967e-16 -0.608761429008725
  outer loop
    vertex 111.46446609406726 -8.231430606434719e-15 18.53553390593275
    vertex 110.6698729810778 -3.000000000000008 17.500000000000007
    vertex 110.6698729810778 -7.771561172376099e-15 17.500000000000007
  endloop
endfacet
facet normal 0.7933533402912317 2.7034438199567967e-16 -0.608761429008725
  outer loop
    vertex 110.6698729810778 -3.000000000000008 17.500000000000007
    vertex 111.46446609406726 -8.231430606434719e-15 18.53553390593275
    vertex 111.46446609406726 -3.0000000000000084 18.53553390593275
  endloop
endfacet
facet normal 0.9238795325112903 1.6994558310171885e-16 -0.38268343236508134
  outer loop
    vertex 110.6698729810778 -7.771561172376099e-15 17.500000000000007
    vertex 110.17037086855467 -3.0000000000000075 16.29409522551261
    vertex 110.17037086855467 -7.236031873919573e-15 16.29409522551261
  endloop
endfacet
facet normal 0.9238795325112903 1.6994558310171885e-16 -0.38268343236508134
  outer loop
    vertex 110.17037086855467 -3.0000000000000075 16.29409522551261
    vertex 110.6698729810778 -7.771561172376099e-15 17.500000000000007
    vertex 110.6698729810778 -3.000000000000008 17.500000000000007
  endloop
endfacet
facet normal 1.0 0.0 0.0
  outer loop
    vertex 112.50000000000001 -1.3322676295501878e-14 30.0
    vertex 112.50000000000001 -3.0000000000000084 19.330127018922205
    vertex 112.50000000000001 -8.584300834134508e-15 19.330127018922205
  endloop
endfacet
facet normal 1.0 0.0 0.0
  outer loop
    vertex 112.50000000000001 -3.0000000000000084 19.330127018922205
    vertex 112.50000000000001 -1.3322676295501878e-14 30.0
    vertex 112.50000000000001 -3.0000000000000133 30.0
  endloop
endfacet
facet normal 0.0 4.440892098500626e-16 -1.0
  outer loop
    vertex 117.50000000000001 -3.0000000000000133 30.0
    vertex 112.50000000000001 -1.3322676295501878e-14 30.0
    vertex 117.50000000000001 -1.3322676295501878e-14 30.0
  endloop
endfacet
facet normal 0.0 4.440892098500626e-16 -1.0
  outer loop
    vertex 112.50000000000001 -1.3322676295501878e-14 30.0
    vertex 117.50000000000001 -3.0000000000000133 30.0
    vertex 112.50000000000001 -3.0000000000000133 30.0
  endloop
endfacet
facet normal 0.6087614290087168 3.5231965802184375e-16 -0.793353340291238
  outer loop
    vertex 112.50000000000001 -3.0000000000000084 19.330127018922205
    vertex 111.46446609406726 -8.231430606434719e-15 18.53553390593275
    vertex 112.50000000000001 -8.584300834134508e-15 19.330127018922205
  endloop
endfacet
facet normal 0.6087614290087168 3.5231965802184375e-16 -0.793353340291238
  outer loop
    vertex 111.46446609406726 -8.231430606434719e-15 18.53553390593275
    vertex 112.50000000000001 -3.0000000000000084 19.330127018922205
    vertex 111.46446609406726 -3.0000000000000084 18.53553390593275
  endloop
endfacet
facet normal 0.0 -1.0 -4.440892098500626e-16
  outer loop
    vertex 130.0 -63.0 -2.7977620220553945e-14
    vertex 0.0 -63.00000000000001 24.99999999999995
    vertex 0.0 -63.0 -2.7977620220553945e-14
  endloop
endfacet
facet normal 0.0 -1.0 -4.440892098500626e-16
  outer loop
    vertex 0.0 -63.00000000000001 24.99999999999995
    vertex 130.0 -63.0 -2.7977620220553945e-14
    vertex 130.0 -63.00000000000001 24.99999999999995
  endloop
endfacet
facet normal 0.0 4.440892098500626e-16 -1.0
  outer loop
    vertex 130.0 -63.0 -2.7977620220553945e-14
    vertex 0.0 -57.99999999999999 -2.575717417130363e-14
    vertex 130.0 -57.99999999999999 -2.575717417130363e-14
  endloop
endfacet
facet normal 0.0 4.440892098500626e-16 -1.0
  outer loop
    vertex 0.0 -57.99999999999999 -2.575717417130363e-14
    vertex 130.0 -63.0 -2.7977620220553945e-14
    vertex 0.0 -63.0 -2.7977620220553945e-14
  endloop
endfacet
facet normal 0.0 -4.440892098500626e-16 1.0
  outer loop
    vertex 0.0 -63.00000000000001 24.99999999999995
    vertex 130.0 -58.00000000000001 24.999999999999957
    vertex 0.0 -58.00000000000001 24.999999999999957
  endloop
endfacet
facet normal 0.0 -4.440892098500626e-16 1.0
  outer loop
    vertex 130.0 -58.00000000000001 24.999999999999957
    vertex 0.0 -63.00000000000001 24.99999999999995
    vertex 130.0 -63.00000000000001 24.99999999999995
  endloop
endfacet
facet normal 0.0 0.0 1.0
  outer loop
    vertex 0.0 -3.000000000000022 50.0
    vertex 130.0 -2.220446049250313e-14 50.0
    vertex 0.0 -2.220446049250313e-14 50.0
  endloop
endfacet
facet normal 0.0 0.0 1.0
  outer loop
    vertex 130.0 -2.220446049250313e-14 50.0
    vertex 0.0 -3.000000000000022 50.0
    vertex 130.0 -3.000000000000022 50.0
  endloop
endfacet
facet normal -8.244332998057824e-33 -5.639932965095794e-16 1.0
  outer loop
    vertex 30.000000000000014 -23.000000000000018 24.999999999999968
    vertex 100.0 -3.0000000000000115 24.99999999999998
    vertex 30.000000000000014 -3.0000000000000115 24.99999999999998
  endloop
endfacet
facet normal -8.244332998057824e-33 -5.639932965095794e-16 1.0
  outer loop
    vertex 100.0 -3.0000000000000115 24.99999999999998
    vertex 30.000000000000014 -23.000000000000018 24.999999999999968
    vertex 100.0 -23.000000000000018 24.999999999999968
  endloop
endfacet
facet normal 8.363391879208433e-20 -1.0 -4.465914362737659e-16
  outer loop
    vertex 12.500000000000009 -3.0000000000000084 19.33012701892219
    vertex 12.500000000000005 -3.0000000000000133 30.0
    vertex 11.464466094067268 -3.0000000000000084 18.535533905932734
  endloop
endfacet
facet normal 8.363391879208433e-20 -1.0 -4.465914362737659e-16
  outer loop
    vertex 0.0 -3.000000000000002 4.9999999999999964
    vertex 10.170370868554663 -3.000000000000006 13.705904774487395
    vertex 0.0 -3.000000000000022 50.0
  endloop
endfacet
facet normal 8.363391879208433e-20 -1.0 -4.465914362737659e-16
  outer loop
    vertex 10.170370868554663 -3.000000000000006 13.705904774487395
    vertex 0.0 -3.000000000000002 4.9999999999999964
    vertex 10.66987298107781 -3.0000000000000058 12.499999999999996
  endloop
endfacet
facet normal 8.363391879208433e-20 -1.0 -4.465914362737659e-16
  outer loop
    vertex 10.66987298107781 -3.0000000000000058 12.499999999999996
    vertex 0.0 -3.000000000000002 4.9999999999999964
    vertex 11.464466094067268 -3.000000000000005 11.464466094067259
  endloop
endfacet
facet normal 8.363391879208433e-20 -1.0 -4.465914362737659e-16
  outer loop
    vertex 11.464466094067268 -3.000000000000005 11.464466094067259
    vertex 0.0 -3.000000000000002 4.9999999999999964
    vertex 12.500000000000004 -3.000000000000005 10.669872981077804
  endloop
endfacet
facet normal 8.363391879208433e-20 -1.0 -4.465914362737659e-16
  outer loop
    vertex 12.500000000000004 -3.000000000000005 10.669872981077804
    vertex 0.0 -3.000000000000002 4.9999999999999964
    vertex 13.705904774487399 -3.000000000000005 10.170370868554656
  endloop
endfacet
facet normal 8.363391879208433e-20 -1.0 -4.465914362737659e-16
  outer loop
    vertex 13.705904774487399 -3.000000000000005 10.170370868554656
    vertex 0.0 -3.000000000000002 4.9999999999999964
    vertex 30.000000000000014 -3.000000000000002 4.9999999999999964
  endloop
endfacet
facet normal 8.363391879208433e-20 -1.0 -4.465914362737659e-16
  outer loop
    vertex 0.0 -3.000000000000022 50.0
    vertex 10.170370868554663 -3.000000000000006 13.705904774487395
    vertex 10.000000000000004 -3.0000000000000067 14.999999999999998
  endloop
endfacet
facet normal 8.363391879208433e-20 -1.0 -4.465914362737659e-16
  outer loop
    vertex 13.705904774487399 -3.000000000000005 10.170370868554656
    vertex 30.000000000000014 -3.000000000000002 4.9999999999999964
    vertex 15.000000000000004 -3.000000000000005 9.999999999999996
  endloop
endfacet
facet normal 8.363391879208433e-20 -1.0 -4.465914362737659e-16
  outer loop
    vertex 15.000000000000004 -3.000000000000005 9.999999999999996
    vertex 30.000000000000014 -3.000000000000002 4.9999999999999964
    vertex 16.294095225512606 -3.000000000000005 10.170370868554656
  endloop
endfacet
facet normal 8.363391879208433e-20 -1.0 -4.465914362737659e-16
  outer loop
    vertex 16.294095225512606 -3.000000000000005 10.170370868554656
    vertex 30.000000000000014 -3.000000000000002 4.9999999999999964
    vertex 17.5 -3.000000000000005 10.669872981077804
  endloop
endfacet
facet normal 8.363391879208433e-20 -1.0 -4.465914362737659e-16
  outer loop
    vertex 17.5 -3.000000000000005 10.669872981077804
    vertex 30.000000000000014 -3.000000000000002 4.9999999999999964
    vertex 18.535533905932738 -3.000000000000005 11.464466094067259
  endloop
endfacet
facet normal 8.363391879208433e-20 -1.0 -4.465914362737659e-16
  outer loop
    vertex 18.535533905932738 -3.000000000000005 11.464466094067259
    vertex 30.000000000000014 -3.000000000000002 4.9999999999999964
    vertex 19.330127018922195 -3.0000000000000058 12.499999999999995
  endloop
endfacet
facet normal 8.363391879208433e-20 -1.0 -4.465914362737659e-16
  outer loop
    vertex 19.330127018922195 -3.0000000000000058 12.499999999999995
    vertex 30.000000000000014 -3.000000000000002 4.9999999999999964
    vertex 19.829629131445344 -3.000000000000006 13.705904774487392
  endloop
endfacet
facet normal 8.363391879208433e-20 -1.0 -4.465914362737659e-16
  outer loop
    vertex 19.829629131445344 -3.000000000000006 13.705904774487392
    vertex 30.000000000000014 -3.000000000000002 4.9999999999999964
    vertex 20.000000000000004 -3.0000000000000067 14.999999999999998
  endloop
endfacet
facet normal 8.363391879208433e-20 -1.0 -4.465914362737659e-16
  outer loop
    vertex 100.0 -3.000000000000002 4.9999999999999964
    vertex 111.46446609406726 -3.000000000000005 11.46446609406725
    vertex 100.0 -3.0000000000000115 24.99999999999998
  endloop
endfacet
facet normal 8.363391879208433e-20 -1.0 -4.465914362737659e-16
  outer loop
    vertex 111.46446609406726 -3.000000000000005 11.46446609406725
    vertex 100.0 -3.000000000000002 4.9999999999999964
    vertex 112.5 -3.000000000000005 10.669872981077793
  endloop
endfacet
facet normal 8.363391879208433e-20 -1.0 -4.465914362737659e-16
  outer loop
    vertex 112.5 -3.000000000000005 10.669872981077793
    vertex 100.0 -3.000000000000002 4.9999999999999964
    vertex 113.70590477448741 -3.000000000000005 10.170370868554642
  endloop
endfacet
facet normal 8.363391879208433e-20 -1.0 -4.465914362737659e-16
  outer loop
    vertex 113.70590477448741 -3.000000000000005 10.170370868554642
    vertex 100.0 -3.000000000000002 4.9999999999999964
    vertex 130.0 -3.000000000000002 4.9999999999999964
  endloop
endfacet
facet normal 8.363391879208433e-20 -1.0 -4.465914362737659e-16
  outer loop
    vertex 100.0 -3.0000000000000115 24.99999999999998
    vertex 111.46446609406726 -3.000000000000005 11.46446609406725
    vertex 110.6698729810778 -3.0000000000000058 12.49999999999999
  endloop
endfacet
facet normal 8.363391879208433e-20 -1.0 -4.465914362737659e-16
  outer loop
    vertex 100.0 -3.0000000000000115 24.99999999999998
    vertex 110.6698729810778 -3.0000000000000058 12.49999999999999
    vertex 110.17037086855467 -3.000000000000006 13.70590477448739
  endloop
endfacet
facet normal 8.363391879208433e-20 -1.0 -4.465914362737659e-16
  outer loop
    vertex 100.0 -3.0000000000000115 24.99999999999998
    vertex 110.17037086855467 -3.000000000000006 13.70590477448739
    vertex 110.0 -3.0000000000000067 14.999999999999998
  endloop
endfacet
facet normal 8.363391879208433e-20 -1.0 -4.465914362737659e-16
  outer loop
    vertex 113.70590477448741 -3.000000000000005 10.170370868554642
    vertex 130.0 -3.000000000000002 4.9999999999999964
    vertex 115.00000000000001 -3.000000000000005 9.999999999999982
  endloop
endfacet
facet normal 8.363391879208433e-20 -1.0 -4.465914362737659e-16
  outer loop
    vertex 115.00000000000001 -3.000000000000005 9.999999999999982
    vertex 130.0 -3.000000000000002 4.9999999999999964
    vertex 116.29409522551262 -3.000000000000005 10.170370868554642
  endloop
endfacet
facet normal 8.363391879208433e-20 -1.0 -4.465914362737659e-16
  outer loop
    vertex 116.29409522551262 -3.000000000000005 10.170370868554642
    vertex 130.0 -3.000000000000002 4.9999999999999964
    vertex 117.50000000000001 -3.000000000000005 10.669872981077793
  endloop
endfacet
facet normal 8.363391879208433e-20 -1.0 -4.465914362737659e-16
  outer loop
    vertex 117.50000000000001 -3.000000000000005 10.669872981077793
    vertex 130.0 -3.000000000000002 4.9999999999999964
    vertex 118.53553390593277 -3.000000000000005 11.46446609406725
  endloop
endfacet
facet normal 8.363391879208433e-20 -1.0 -4.465914362737659e-16
  outer loop
    vertex 118.53553390593277 -3.000000000000005 11.46446609406725
    vertex 130.0 -3.000000000000002 4.9999999999999964
    vertex 119.33012701892223 -3.0000000000000058 12.499999999999988
  endloop
endfacet
facet normal 8.363391879208433e-20 -1.0 -4.465914362737659e-16
  outer loop
    vertex 119.33012701892223 -3.0000000000000058 12.499999999999988
    vertex 130.0 -3.000000000000002 4.9999999999999964
    vertex 119.82962913144536 -3.000000000000006 13.70590477448739
  endloop
endfacet
facet normal 8.363391879208433e-20 -1.0 -4.465914362737659e-16
  outer loop
    vertex 119.82962913144536 -3.000000000000006 13.70590477448739
    vertex 130.0 -3.000000000000002 4.9999999999999964
    vertex 120.00000000000003 -3.0000000000000067 14.999999999999998
  endloop
endfacet
facet normal 8.363391879208433e-20 -1.0 -4.465914362737659e-16
  outer loop
    vertex 0.0 -3.000000000000022 50.0
    vertex 12.500000000000005 -3.0000000000000133 30.0
    vertex 130.0 -3.000000000000022 50.0
  endloop
endfacet
facet normal 8.363391879208433e-20 -1.0 -4.465914362737659e-16
  outer loop
    vertex 12.500000000000005 -3.0000000000000133 30.0
    vertex 0.0 -3.000000000000022 50.0
    vertex 10.170370868554665 -3.0000000000000075 16.294095225512606
  endloop
endfacet
facet normal 8.363391879208433e-20 -1.0 -4.465914362737659e-16
  outer loop
    vertex 10.170370868554665 -3.0000000000000075 16.294095225512606
    vertex 0.0 -3.000000000000022 50.0
    vertex 10.000000000000004 -3.0000000000000067 14.999999999999998
  endloop
endfacet
facet normal 8.363391879208433e-20 -1.0 -4.465914362737659e-16
  outer loop
    vertex 12.500000000000005 -3.0000000000000133 30.0
    vertex 10.170370868554665 -3.0000000000000075 16.294095225512606
    vertex 10.669872981077813 -3.000000000000008 17.5
  endloop
endfacet
facet normal 8.363391879208433e-20 -1.0 -4.465914362737659e-16
  outer loop
    vertex 12.500000000000005 -3.0000000000000133 30.0
    vertex 10.669872981077813 -3.000000000000008 17.5
    vertex 11.464466094067268 -3.0000000000000084 18.535533905932734
  endloop
endfacet
facet normal 8.363391879208433e-20 -1.0 -4.465914362737659e-16
  outer loop
    vertex 130.0 -3.000000000000022 50.0
    vertex 12.500000000000005 -3.0000000000000133 30.0
    vertex 17.5 -3.0000000000000133 30.0
  endloop
endfacet
facet normal 8.363391879208433e-20 -1.0 -4.465914362737659e-16
  outer loop
    vertex 130.0 -3.000000000000022 50.0
    vertex 17.5 -3.0000000000000133 30.0
    vertex 30.000000000000014 -3.0000000000000115 24.99999999999998
  endloop
endfacet
facet normal 8.363391879208433e-20 -1.0 -4.465914362737659e-16
  outer loop
    vertex 30.000000000000014 -3.0000000000000115 24.99999999999998
    vertex 17.5 -3.0000000000000133 30.0
    vertex 17.500000000000004 -3.0000000000000084 19.33012701892219
  endloop
endfacet
facet normal 8.363391879208433e-20 -1.0 -4.465914362737659e-16
  outer loop
    vertex 30.000000000000014 -3.0000000000000115 24.99999999999998
    vertex 17.500000000000004 -3.0000000000000084 19.33012701892219
    vertex 18.53553390593274 -3.0000000000000084 18.535533905932734
  endloop
endfacet
facet normal 8.363391879208433e-20 -1.0 -4.465914362737659e-16
  outer loop
    vertex 30.000000000000014 -3.0000000000000115 24.99999999999998
    vertex 18.53553390593274 -3.0000000000000084 18.535533905932734
    vertex 19.330127018922198 -3.000000000000008 17.499999999999996
  endloop
endfacet
facet normal 8.363391879208433e-20 -1.0 -4.465914362737659e-16
  outer loop
    vertex 30.000000000000014 -3.0000000000000115 24.99999999999998
    vertex 19.330127018922198 -3.000000000000008 17.499999999999996
    vertex 19.829629131445344 -3.0000000000000075 16.2940952255126
  endloop
endfacet
facet normal 8.363391879208433e-20 -1.0 -4.465914362737659e-16
  outer loop
    vertex 30.000000000000014 -3.0000000000000115 24.99999999999998
    vertex 19.829629131445344 -3.0000000000000075 16.2940952255126
    vertex 20.000000000000004 -3.0000000000000067 14.999999999999998
  endloop
endfacet
facet normal 8.363391879208433e-20 -1.0 -4.465914362737659e-16
  outer loop
    vertex 30.000000000000014 -3.0000000000000115 24.99999999999998
    vertex 20.000000000000004 -3.0000000000000067 14.999999999999998
    vertex 30.000000000000014 -3.000000000000002 4.9999999999999964
  endloop
endfacet
facet normal 8.363391879208433e-20 -1.0 -4.465914362737659e-16
  outer loop
    vertex 130.0 -3.000000000000022 50.0
    vertex 30.000000000000014 -3.0000000000000115 24.99999999999998
    vertex 100.0 -3.0000000000000115 24.99999999999998
  endloop
endfacet
facet normal 8.363391879208433e-20 -1.0 -4.465914362737659e-16
  outer loop
    vertex 130.0 -3.000000000000022 50.0
    vertex 100.0 -3.0000000000000115 24.99999999999998
    vertex 112.50000000000001 -3.0000000000000133 30.0
  endloop
endfacet
facet normal 8.363391879208433e-20 -1.0 -4.465914362737659e-16
  outer loop
    vertex 112.50000000000001 -3.0000000000000133 30.0
    vertex 100.0 -3.0000000000000115 24.99999999999998
    vertex 110.17037086855467 -3.0000000000000075 16.29409522551261
  endloop
endfacet
facet normal 8.363391879208433e-20 -1.0 -4.465914362737659e-16
  outer loop
    vertex 110.17037086855467 -3.0000000000000075 16.29409522551261
    vertex 100.0 -3.0000000000000115 24.99999999999998
    vertex 110.0 -3.0000000000000067 14.999999999999998
  endloop
endfacet
facet normal 8.363391879208433e-20 -1.0 -4.465914362737659e-16
  outer loop
    vertex 112.50000000000001 -3.0000000000000133 30.0
    vertex 110.17037086855467 -3.0000000000000075 16.29409522551261
    vertex 110.6698729810778 -3.000000000000008 17.500000000000007
  endloop
endfacet
facet normal 8.363391879208433e-20 -1.0 -4.465914362737659e-16
  outer loop
    vertex 112.50000000000001 -3.0000000000000133 30.0
    vertex 110.6698729810778 -3.000000000000008 17.500000000000007
    vertex 111.46446609406726 -3.0000000000000084 18.53553390593275
  endloop
endfacet
facet normal 8.363391879208433e-20 -1.0 -4.465914362737659e-16
  outer loop
    vertex 112.50000000000001 -3.0000000000000133 30.0
    vertex 111.46446609406726 -3.0000000000000084 18.53553390593275
    vertex 112.50000000000001 -3.0000000000000084 19.330127018922205
  endloop
endfacet
facet normal 8.363391879208433e-20 -1.0 -4.465914362737659e-16
  outer loop
    vertex 130.0 -3.000000000000022 50.0
    vertex 112.50000000000001 -3.0000000000000133 30.0
    vertex 117.50000000000001 -3.0000000000000133 30.0
  endloop
endfacet
facet normal 8.363391879208433e-20 -1.0 -4.465914362737659e-16
  outer loop
    vertex 130.0 -3.000000000000022 50.0
    vertex 117.50000000000001 -3.0000000000000133 30.0
    vertex 117.50000000000003 -3.0000000000000084 19.3301270189222
  endloop
endfacet
facet normal 8.363391879208433e-20 -1.0 -4.465914362737659e-16
  outer loop
    vertex 130.0 -3.000000000000022 50.0
    vertex 117.50000000000003 -3.0000000000000084 19.3301270189222
    vertex 118.53553390593277 -3.0000000000000084 18.53553390593274
  endloop
endfacet
facet normal 8.363391879208433e-20 -1.0 -4.465914362737659e-16
  outer loop
    vertex 130.0 -3.000000000000022 50.0
    vertex 118.53553390593277 -3.0000000000000084 18.53553390593274
    vertex 119.33012701892223 -3.000000000000008 17.5
  endloop
endfacet
facet normal 8.363391879208433e-20 -1.0 -4.465914362737659e-16
  outer loop
    vertex 130.0 -3.000000000000022 50.0
    vertex 119.33012701892223 -3.000000000000008 17.5
    vertex 119.82962913144536 -3.0000000000000075 16.294095225512603
  endloop
endfacet
facet normal 8.363391879208433e-20 -1.0 -4.465914362737659e-16
  outer loop
    vertex 130.0 -3.000000000000022 50.0
    vertex 119.82962913144536 -3.0000000000000075 16.294095225512603
    vertex 120.00000000000003 -3.0000000000000067 14.999999999999998
  endloop
endfacet
facet normal 8.363391879208433e-20 -1.0 -4.465914362737659e-16
  outer loop
    vertex 130.0 -3.000000000000022 50.0
    vertex 120.00000000000003 -3.0000000000000067 14.999999999999998
    vertex 130.0 -3.000000000000002 4.9999999999999964
  endloop
endfacet
endsolid Arris_bracket
