solid Arris_bracket
facet normal -1.0 2.0482986225911626e-30 -3.627783088880271e-15
  outer loop
    vertex 118.49999999999999 -2.255973186038318e-14 35.99999999999999
    vertex 118.50000000000003 -1.0000000000000207 23.562800030943233
    vertex 118.49999999999999 -1.0000000000000207 35.99999999999999
  endloop
endfacet
facet normal -1.0 2.0482986225911626e-30 -3.627783088880271e-15
  outer loop
    vertex 118.50000000000003 -1.0000000000000207 23.562800030943233
    vertex 118.49999999999999 -2.255973186038318e-14 35.99999999999999
    vertex 118.50000000000003 -1.127986593019159e-14 23.562800030943233
  endloop
endfacet
facet normal 4.49238186870244e-31 1.0 4.4078171063267027e-16
  outer loop
    vertex 111.50000000000001 -1.0000000000000207 35.99999999999999
    vertex 112.50000000000001 -1.0000000000000207 24.330127018922205
    vertex 111.50000000000001 -1.0000000000000207 23.56280003094325
  endloop
endfacet
facet normal 4.49238186870244e-31 1.0 4.4078171063267027e-16
  outer loop
    vertex 112.50000000000001 -1.0000000000000207 24.330127018922205
    vertex 111.50000000000001 -1.0000000000000207 35.99999999999999
    vertex 112.50000000000001 -1.0000000000000207 35.0
  endloop
endfacet
facet normal 4.49238186870244e-31 1.0 4.4078171063267027e-16
  outer loop
    vertex 112.50000000000001 -1.0000000000000207 35.0
    vertex 111.50000000000001 -1.0000000000000207 35.99999999999999
    vertex 117.50000000000001 -1.0000000000000207 35.0
  endloop
endfacet
facet normal 4.49238186870244e-31 1.0 4.4078171063267027e-16
  outer loop
    vertex 117.50000000000003 -1.0000000000000207 24.3301270189222
    vertex 118.49999999999999 -1.0000000000000207 35.99999999999999
    vertex 118.50000000000003 -1.0000000000000207 23.562800030943233
  endloop
endfacet
facet normal 4.49238186870244e-31 1.0 4.4078171063267027e-16
  outer loop
    vertex 118.49999999999999 -1.0000000000000207 35.99999999999999
    vertex 117.50000000000003 -1.0000000000000207 24.3301270189222
    vertex 117.50000000000001 -1.0000000000000207 35.0
  endloop
endfacet
facet normal 4.49238186870244e-31 1.0 4.4078171063267027e-16
  outer loop
    vertex 118.49999999999999 -1.0000000000000207 35.99999999999999
    vertex 117.50000000000001 -1.0000000000000207 35.0
    vertex 111.50000000000001 -1.0000000000000207 35.99999999999999
  endloop
endfacet
facet normal 1.0 -4.49238186870244e-31 -1.9098500357895806e-46
  outer loop
    vertex 111.50000000000001 -1.127986593019159e-14 23.56280003094325
    vertex 111.50000000000001 -1.0000000000000207 35.99999999999999
    vertex 111.50000000000001 -1.0000000000000207 23.56280003094325
  endloop
endfacet
facet normal 1.0 -4.49238186870244e-31 -1.9098500357895806e-46
  outer loop
    vertex 111.50000000000001 -1.0000000000000207 35.99999999999999
    vertex 111.50000000000001 -1.127986593019159e-14 23.56280003094325
    vertex 111.50000000000001 -2.255973186038318e-14 35.99999999999999
  endloop
endfacet
facet normal 0.0 4.407817106326702e-16 -1.0
  outer loop
    vertex 118.49999999999999 -2.255973186038318e-14 35.99999999999999
    vertex 111.50000000000001 -1.0000000000000207 35.99999999999999
    vertex 111.50000000000001 -2.255973186038318e-14 35.99999999999999
  endloop
endfacet
facet normal 0.0 4.407817106326702e-16 -1.0
  outer loop
    vertex 111.50000000000001 -1.0000000000000207 35.99999999999999
    vertex 118.49999999999999 -2.255973186038318e-14 35.99999999999999
    vertex 118.49999999999999 -1.0000000000000207 35.99999999999999
  endloop
endfacet
facet normal -0.9238795325112863 -1.6994558310172331e-16 0.3826834323650914
  outer loop
    vertex 19.829629131445344 -1.127986593019159e-14 18.70590477448739
    vertex 19.330127018922195 -5.000000000000013 17.499999999999996
    vertex 19.829629131445344 -5.000000000000013 18.70590477448739
  endloop
endfacet
facet normal -0.9238795325112863 -1.6994558310172331e-16 0.3826834323650914
  outer loop
    vertex 19.330127018922195 -5.000000000000013 17.499999999999996
    vertex 19.829629131445344 -1.127986593019159e-14 18.70590477448739
    vertex 19.330127018922195 -1.127986593019159e-14 17.499999999999996
  endloop
endfacet
facet normal 0.0 1.0 4.4222201658137483e-16
  outer loop
    vertex 0.0 0.0 0.0
    vertex 15.000000000000004 -1.127986593019159e-14 15.0
    vertex 130.0 0.0 0.0
  endloop
endfacet
facet normal 0.0 1.0 4.4222201658137483e-16
  outer loop
    vertex 15.000000000000004 -1.127986593019159e-14 15.0
    vertex 0.0 0.0 0.0
    vertex 13.705904774487399 -1.127986593019159e-14 15.17037086855466
  endloop
endfacet
facet normal 0.0 1.0 4.4222201658137483e-16
  outer loop
    vertex 13.705904774487399 -1.127986593019159e-14 15.17037086855466
    vertex 0.0 0.0 0.0
    vertex 12.500000000000004 -1.127986593019159e-14 15.669872981077807
  endloop
endfacet
facet normal 0.0 1.0 4.4222201658137483e-16
  outer loop
    vertex 12.500000000000004 -1.127986593019159e-14 15.669872981077807
    vertex 0.0 0.0 0.0
    vertex 11.464466094067268 -1.127986593019159e-14 16.464466094067262
  endloop
endfacet
facet normal 0.0 1.0 4.4222201658137483e-16
  outer loop
    vertex 11.464466094067268 -1.127986593019159e-14 16.464466094067262
    vertex 0.0 0.0 0.0
    vertex 10.66987298107781 -1.127986593019159e-14 17.5
  endloop
endfacet
facet normal 0.0 1.0 4.4222201658137483e-16
  outer loop
    vertex 10.66987298107781 -1.127986593019159e-14 17.5
    vertex 0.0 0.0 0.0
    vertex 10.170370868554663 -1.127986593019159e-14 18.705904774487394
  endloop
endfacet
facet normal 0.0 1.0 4.4222201658137483e-16
  outer loop
    vertex 10.170370868554663 -1.127986593019159e-14 18.705904774487394
    vertex 0.0 0.0 0.0
    vertex 0.0 -3.3839597790574766e-14 54.99999999999999
  endloop
endfacet
facet normal 0.0 1.0 4.4222201658137483e-16
  outer loop
    vertex 130.0 0.0 0.0
    vertex 15.000000000000004 -1.127986593019159e-14 15.0
    vertex 115.00000000000001 -1.127986593019159e-14 14.999999999999984
  endloop
endfacet
facet normal 0.0 1.0 4.4222201658137483e-16
  outer loop
    vertex 10.170370868554663 -1.127986593019159e-14 18.705904774487394
    vertex 0.0 -3.3839597790574766e-14 54.99999999999999
    vertex 10.000000000000004 -1.127986593019159e-14 19.999999999999996
  endloop
endfacet
facet normal 0.0 1.0 4.4222201658137483e-16
  outer loop
    vertex 10.000000000000004 -1.127986593019159e-14 19.999999999999996
    vertex 0.0 -3.3839597790574766e-14 54.99999999999999
    vertex 10.170370868554665 -1.127986593019159e-14 21.294095225512606
  endloop
endfacet
facet normal 0.0 1.0 4.4222201658137483e-16
  outer loop
    vertex 10.170370868554665 -1.127986593019159e-14 21.294095225512606
    vertex 0.0 -3.3839597790574766e-14 54.99999999999999
    vertex 10.669872981077813 -1.127986593019159e-14 22.5
  endloop
endfacet
facet normal 0.0 1.0 4.4222201658137483e-16
  outer loop
    vertex 10.669872981077813 -1.127986593019159e-14 22.5
    vertex 0.0 -3.3839597790574766e-14 54.99999999999999
    vertex 11.464466094067268 -1.127986593019159e-14 23.535533905932734
  endloop
endfacet
facet normal 0.0 1.0 4.4222201658137483e-16
  outer loop
    vertex 11.464466094067268 -1.127986593019159e-14 23.535533905932734
    vertex 0.0 -3.3839597790574766e-14 54.99999999999999
    vertex 11.500000000000005 -2.255973186038318e-14 23.56280003094323
  endloop
endfacet
facet normal 0.0 1.0 4.4222201658137483e-16
  outer loop
    vertex 11.500000000000005 -2.255973186038318e-14 23.56280003094323
    vertex 0.0 -3.3839597790574766e-14 54.99999999999999
    vertex 11.500000000000005 -2.255973186038318e-14 35.99999999999999
  endloop
endfacet
facet normal 0.0 1.0 4.4222201658137483e-16
  outer loop
    vertex 11.500000000000005 -2.255973186038318e-14 35.99999999999999
    vertex 0.0 -3.3839597790574766e-14 54.99999999999999
    vertex 18.5 -2.255973186038318e-14 35.99999999999999
  endloop
endfacet
facet normal 0.0 1.0 4.4222201658137483e-16
  outer loop
    vertex 18.5 -2.255973186038318e-14 35.99999999999999
    vertex 0.0 -3.3839597790574766e-14 54.99999999999999
    vertex 111.50000000000001 -2.255973186038318e-14 35.99999999999999
  endloop
endfacet
facet normal 0.0 1.0 4.4222201658137483e-16
  outer loop
    vertex 111.50000000000001 -2.255973186038318e-14 35.99999999999999
    vertex 0.0 -3.3839597790574766e-14 54.99999999999999
    vertex 118.49999999999999 -2.255973186038318e-14 35.99999999999999
  endloop
endfacet
facet normal 0.0 1.0 4.4222201658137483e-16
  outer loop
    vertex 130.0 0.0 0.0
    vertex 119.82962913144536 -1.127986593019159e-14 18.70590477448739
    vertex 130.0 -3.3839597790574766e-14 54.99999999999999
  endloop
endfacet
facet normal 0.0 1.0 4.4222201658137483e-16
  outer loop
    vertex 119.82962913144536 -1.127986593019159e-14 18.70590477448739
    vertex 130.0 0.0 0.0
    vertex 119.33012701892223 -1.127986593019159e-14 17.49999999999999
  endloop
endfacet
facet normal 0.0 1.0 4.4222201658137483e-16
  outer loop
    vertex 119.33012701892223 -1.127986593019159e-14 17.49999999999999
    vertex 130.0 0.0 0.0
    vertex 118.53553390593277 -1.127986593019159e-14 16.46446609406725
  endloop
endfacet
facet normal 0.0 1.0 4.4222201658137483e-16
  outer loop
    vertex 118.53553390593277 -1.127986593019159e-14 16.46446609406725
    vertex 130.0 0.0 0.0
    vertex 117.50000000000001 -1.127986593019159e-14 15.669872981077797
  endloop
endfacet
facet normal 0.0 1.0 4.4222201658137483e-16
  outer loop
    vertex 117.50000000000001 -1.127986593019159e-14 15.669872981077797
    vertex 130.0 0.0 0.0
    vertex 116.29409522551262 -1.127986593019159e-14 15.170370868554642
  endloop
endfacet
facet normal 0.0 1.0 4.4222201658137483e-16
  outer loop
    vertex 116.29409522551262 -1.127986593019159e-14 15.170370868554642
    vertex 130.0 0.0 0.0
    vertex 115.00000000000001 -1.127986593019159e-14 14.999999999999984
  endloop
endfacet
facet normal 0.0 1.0 4.4222201658137483e-16
  outer loop
    vertex 130.0 -3.3839597790574766e-14 54.99999999999999
    vertex 119.82962913144536 -1.127986593019159e-14 18.70590477448739
    vertex 120.00000000000003 -1.127986593019159e-14 19.999999999999996
  endloop
endfacet
facet normal 0.0 1.0 4.4222201658137483e-16
  outer loop
    vertex 130.0 -3.3839597790574766e-14 54.99999999999999
    vertex 120.00000000000003 -1.127986593019159e-14 19.999999999999996
    vertex 119.82962913144536 -1.127986593019159e-14 21.294095225512603
  endloop
endfacet
facet normal 0.0 1.0 4.4222201658137483e-16
  outer loop
    vertex 130.0 -3.3839597790574766e-14 54.99999999999999
    vertex 119.82962913144536 -1.127986593019159e-14 21.294095225512603
    vertex 119.33012701892223 -1.127986593019159e-14 22.5
  endloop
endfacet
facet normal 0.0 1.0 4.4222201658137483e-16
  outer loop
    vertex 130.0 -3.3839597790574766e-14 54.99999999999999
    vertex 119.33012701892223 -1.127986593019159e-14 22.5
    vertex 118.53553390593277 -1.127986593019159e-14 23.53553390593274
  endloop
endfacet
facet normal 0.0 1.0 4.4222201658137483e-16
  outer loop
    vertex 130.0 -3.3839597790574766e-14 54.99999999999999
    vertex 118.53553390593277 -1.127986593019159e-14 23.53553390593274
    vertex 118.50000000000003 -1.127986593019159e-14 23.562800030943233
  endloop
endfacet
facet normal 0.0 1.0 4.4222201658137483e-16
  outer loop
    vertex 130.0 -3.3839597790574766e-14 54.99999999999999
    vertex 118.50000000000003 -1.127986593019159e-14 23.562800030943233
    vertex 118.49999999999999 -2.255973186038318e-14 35.99999999999999
  endloop
endfacet
facet normal 0.0 1.0 4.4222201658137483e-16
  outer loop
    vertex 130.0 -3.3839597790574766e-14 54.99999999999999
    vertex 118.49999999999999 -2.255973186038318e-14 35.99999999999999
    vertex 0.0 -3.3839597790574766e-14 54.99999999999999
  endloop
endfacet
facet normal 0.0 1.0 4.4222201658137483e-16
  outer loop
    vertex 15.000000000000004 -1.127986593019159e-14 15.0
    vertex 113.70590477448741 -1.127986593019159e-14 15.170370868554642
    vertex 115.00000000000001 -1.127986593019159e-14 14.999999999999984
  endloop
endfacet
facet normal 0.0 1.0 4.4222201658137483e-16
  outer loop
    vertex 113.70590477448741 -1.127986593019159e-14 15.170370868554642
    vertex 15.000000000000004 -1.127986593019159e-14 15.0
    vertex 16.294095225512606 -1.127986593019159e-14 15.17037086855466
  endloop
endfacet
facet normal 0.0 1.0 4.4222201658137483e-16
  outer loop
    vertex 113.70590477448741 -1.127986593019159e-14 15.170370868554642
    vertex 16.294095225512606 -1.127986593019159e-14 15.17037086855466
    vertex 112.5 -1.127986593019159e-14 15.669872981077797
  endloop
endfacet
facet normal 0.0 1.0 4.4222201658137483e-16
  outer loop
    vertex 112.5 -1.127986593019159e-14 15.669872981077797
    vertex 16.294095225512606 -1.127986593019159e-14 15.17037086855466
    vertex 17.5 -1.127986593019159e-14 15.669872981077807
  endloop
endfacet
facet normal 0.0 1.0 4.4222201658137483e-16
  outer loop
    vertex 112.5 -1.127986593019159e-14 15.669872981077797
    vertex 17.5 -1.127986593019159e-14 15.669872981077807
    vertex 111.46446609406726 -1.127986593019159e-14 16.46446609406725
  endloop
endfacet
facet normal 0.0 1.0 4.4222201658137483e-16
  outer loop
    vertex 111.46446609406726 -1.127986593019159e-14 16.46446609406725
    vertex 17.5 -1.127986593019159e-14 15.669872981077807
    vertex 18.535533905932738 -1.127986593019159e-14 16.464466094067262
  endloop
endfacet
facet normal 0.0 1.0 4.4222201658137483e-16
  outer loop
    vertex 111.46446609406726 -1.127986593019159e-14 16.46446609406725
    vertex 18.535533905932738 -1.127986593019159e-14 16.464466094067262
    vertex 110.6698729810778 -1.127986593019159e-14 17.49999999999999
  endloop
endfacet
facet normal 0.0 1.0 4.4222201658137483e-16
  outer loop
    vertex 110.6698729810778 -1.127986593019159e-14 17.49999999999999
    vertex 18.535533905932738 -1.127986593019159e-14 16.464466094067262
    vertex 19.330127018922195 -1.127986593019159e-14 17.499999999999996
  endloop
endfacet
facet normal 0.0 1.0 4.4222201658137483e-16
  outer loop
    vertex 110.6698729810778 -1.127986593019159e-14 17.49999999999999
    vertex 19.330127018922195 -1.127986593019159e-14 17.499999999999996
    vertex 110.17037086855467 -1.127986593019159e-14 18.70590477448739
  endloop
endfacet
facet normal 0.0 1.0 4.4222201658137483e-16
  outer loop
    vertex 110.17037086855467 -1.127986593019159e-14 18.70590477448739
    vertex 19.330127018922195 -1.127986593019159e-14 17.499999999999996
    vertex 19.829629131445344 -1.127986593019159e-14 18.70590477448739
  endloop
endfacet
facet normal 0.0 1.0 4.4222201658137483e-16
  outer loop
    vertex 110.17037086855467 -1.127986593019159e-14 18.70590477448739
    vertex 19.829629131445344 -1.127986593019159e-14 18.70590477448739
    vertex 110.0 -1.127986593019159e-14 19.999999999999996
  endloop
endfacet
facet normal 0.0 1.0 4.4222201658137483e-16
  outer loop
    vertex 110.0 -1.127986593019159e-14 19.999999999999996
    vertex 19.829629131445344 -1.127986593019159e-14 18.70590477448739
    vertex 20.000000000000004 -1.127986593019159e-14 19.999999999999996
  endloop
endfacet
facet normal 0.0 1.0 4.4222201658137483e-16
  outer loop
    vertex 110.0 -1.127986593019159e-14 19.999999999999996
    vertex 20.000000000000004 -1.127986593019159e-14 19.999999999999996
    vertex 19.829629131445344 -1.127986593019159e-14 21.2940952255126
  endloop
endfacet
facet normal 0.0 1.0 4.4222201658137483e-16
  outer loop
    vertex 110.0 -1.127986593019159e-14 19.999999999999996
    vertex 19.829629131445344 -1.127986593019159e-14 21.2940952255126
    vertex 110.17037086855467 -1.127986593019159e-14 21.29409522551261
  endloop
endfacet
facet normal 0.0 1.0 4.4222201658137483e-16
  outer loop
    vertex 110.17037086855467 -1.127986593019159e-14 21.29409522551261
    vertex 19.829629131445344 -1.127986593019159e-14 21.2940952255126
    vertex 19.330127018922198 -1.127986593019159e-14 22.499999999999996
  endloop
endfacet
facet normal 0.0 1.0 4.4222201658137483e-16
  outer loop
    vertex 110.17037086855467 -1.127986593019159e-14 21.29409522551261
    vertex 19.330127018922198 -1.127986593019159e-14 22.499999999999996
    vertex 110.6698729810778 -1.127986593019159e-14 22.500000000000007
  endloop
endfacet
facet normal 0.0 1.0 4.4222201658137483e-16
  outer loop
    vertex 110.6698729810778 -1.127986593019159e-14 22.500000000000007
    vertex 19.330127018922198 -1.127986593019159e-14 22.499999999999996
    vertex 18.53553390593274 -1.127986593019159e-14 23.53553390593273
  endloop
endfacet
facet normal 0.0 1.0 4.4222201658137483e-16
  outer loop
    vertex 110.6698729810778 -1.127986593019159e-14 22.500000000000007
    vertex 18.53553390593274 -1.127986593019159e-14 23.53553390593273
    vertex 111.46446609406726 -1.127986593019159e-14 23.535533905932745
  endloop
endfacet
facet normal 0.0 1.0 4.4222201658137483e-16
  outer loop
    vertex 111.46446609406726 -1.127986593019159e-14 23.535533905932745
    vertex 18.53553390593274 -1.127986593019159e-14 23.53553390593273
    vertex 18.500000000000007 -1.127986593019159e-14 23.56280003094323
  endloop
endfacet
facet normal 0.0 1.0 4.4222201658137483e-16
  outer loop
    vertex 111.46446609406726 -1.127986593019159e-14 23.535533905932745
    vertex 18.500000000000007 -1.127986593019159e-14 23.56280003094323
    vertex 111.50000000000001 -1.127986593019159e-14 23.56280003094325
  endloop
endfacet
facet normal 0.0 1.0 4.4222201658137483e-16
  outer loop
    vertex 111.50000000000001 -1.127986593019159e-14 23.56280003094325
    vertex 18.500000000000007 -1.127986593019159e-14 23.56280003094323
    vertex 18.5 -2.255973186038318e-14 35.99999999999999
  endloop
endfacet
facet normal 0.0 1.0 4.4222201658137483e-16
  outer loop
    vertex 111.50000000000001 -1.127986593019159e-14 23.56280003094325
    vertex 18.5 -2.255973186038318e-14 35.99999999999999
    vertex 111.50000000000001 -2.255973186038318e-14 35.99999999999999
  endloop
endfacet
facet normal -0.9914448613738104 -5.796527356774009e-17 0.13052619222005157
  outer loop
    vertex 20.000000000000004 -1.127986593019159e-14 19.999999999999996
    vertex 19.829629131445344 -5.000000000000013 18.70590477448739
    vertex 20.000000000000004 -5.000000000000013 19.999999999999996
  endloop
endfacet
facet normal -0.9914448613738104 -5.796527356774009e-17 0.13052619222005157
  outer loop
    vertex 19.829629131445344 -5.000000000000013 18.70590477448739
    vertex 20.000000000000004 -1.127986593019159e-14 19.999999999999996
    vertex 19.829629131445344 -1.127986593019159e-14 18.70590477448739
  endloop
endfacet
facet normal -0.3826834323650921 -4.102849315895822e-16 0.923879532511286
  outer loop
    vertex 117.50000000000001 -5.000000000000013 15.66987298107779
    vertex 116.29409522551262 -1.127986593019159e-14 15.170370868554642
    vertex 116.29409522551262 -5.000000000000013 15.170370868554642
  endloop
endfacet
facet normal -0.3826834323650921 -4.102849315895822e-16 0.923879532511286
  outer loop
    vertex 116.29409522551262 -1.127986593019159e-14 15.170370868554642
    vertex 117.50000000000001 -5.000000000000013 15.66987298107779
    vertex 117.50000000000001 -1.127986593019159e-14 15.669872981077797
  endloop
endfacet
facet normal -1.0 0.0 0.0
  outer loop
    vertex 30.000000000000014 -5.000000000000025 34.99999999999998
    vertex 30.000000000000014 -25.00000000000001 9.999999999999988
    vertex 30.000000000000014 -25.00000000000003 34.999999999999964
  endloop
endfacet
facet normal -1.0 0.0 0.0
  outer loop
    vertex 30.000000000000014 -25.00000000000001 9.999999999999988
    vertex 30.000000000000014 -5.000000000000025 34.99999999999998
    vertex 30.000000000000014 -5.000000000000013 9.999999999999996
  endloop
endfacet
facet normal 0.793353340291232 -2.703443819956797e-16 0.6087614290087251
  outer loop
    vertex 111.46446609406726 -1.127986593019159e-14 16.46446609406725
    vertex 110.6698729810778 -5.000000000000013 17.49999999999999
    vertex 111.46446609406726 -5.000000000000013 16.46446609406725
  endloop
endfacet
facet normal 0.793353340291232 -2.703443819956797e-16 0.6087614290087251
  outer loop
    vertex 110.6698729810778 -5.000000000000013 17.49999999999999
    vertex 111.46446609406726 -1.127986593019159e-14 16.46446609406725
    vertex 110.6698729810778 -1.127986593019159e-14 17.49999999999999
  endloop
endfacet
facet normal -0.6087614290087169 -3.5231965802184385e-16 0.7933533402912383
  outer loop
    vertex 118.53553390593277 -5.000000000000013 16.46446609406725
    vertex 117.50000000000001 -1.127986593019159e-14 15.669872981077797
    vertex 117.50000000000001 -5.000000000000013 15.66987298107779
  endloop
endfacet
facet normal -0.6087614290087169 -3.5231965802184385e-16 0.7933533402912383
  outer loop
    vertex 117.50000000000001 -1.127986593019159e-14 15.669872981077797
    vertex 118.53553390593277 -5.000000000000013 16.46446609406725
    vertex 118.53553390593277 -1.127986593019159e-14 16.46446609406725
  endloop
endfacet
facet normal -0.9914448613738104 5.796527356774023e-17 -0.13052619222005188
  outer loop
    vertex 19.829629131445344 -1.127986593019159e-14 21.2940952255126
    vertex 20.000000000000004 -5.000000000000013 19.999999999999996
    vertex 19.829629131445344 -5.000000000000013 21.2940952255126
  endloop
endfacet
facet normal -0.9914448613738104 5.796527356774023e-17 -0.13052619222005188
  outer loop
    vertex 20.000000000000004 -5.000000000000013 19.999999999999996
    vertex 19.829629131445344 -1.127986593019159e-14 21.2940952255126
    vertex 20.000000000000004 -1.127986593019159e-14 19.999999999999996
  endloop
endfacet
facet normal -0.13052619222005188 -4.402899650974003e-16 0.9914448613738104
  outer loop
    vertex 116.29409522551262 -5.000000000000013 15.170370868554642
    vertex 115.00000000000001 -1.127986593019159e-14 14.999999999999984
    vertex 115.00000000000001 -5.000000000000013 14.999999999999984
  endloop
endfacet
facet normal -0.13052619222005188 -4.402899650974003e-16 0.9914448613738104
  outer loop
    vertex 115.00000000000001 -1.127986593019159e-14 14.999999999999984
    vertex 116.29409522551262 -5.000000000000013 15.170370868554642
    vertex 116.29409522551262 -1.127986593019159e-14 15.170370868554642
  endloop
endfacet
facet normal 0.0 -1.0 -4.440892098500626e-16
  outer loop
    vertex 110.0 -31.00000000000001 9.999999999999984
    vertex 20.000000000000007 -31.000000000000004 -7.049916206369744e-16
    vertex 110.0 -31.000000000000004 -7.049916206369744e-16
  endloop
endfacet
facet normal 0.0 -1.0 -4.440892098500626e-16
  outer loop
    vertex 20.000000000000007 -31.000000000000004 -7.049916206369744e-16
    vertex 110.0 -31.00000000000001 9.999999999999984
    vertex 20.000000000000007 -31.00000000000001 9.999999999999984
  endloop
endfacet
facet normal 1.0 0.0 0.0
  outer loop
    vertex 100.0 -25.00000000000001 9.999999999999988
    vertex 100.0 -5.000000000000025 34.99999999999998
    vertex 100.0 -25.00000000000003 34.999999999999964
  endloop
endfacet
facet normal 1.0 0.0 0.0
  outer loop
    vertex 100.0 -5.000000000000025 34.99999999999998
    vertex 100.0 -25.00000000000001 9.999999999999988
    vertex 100.0 -5.000000000000013 9.999999999999996
  endloop
endfacet
facet normal -0.7933533402912354 2.7034438199567774e-16 -0.6087614290087207
  outer loop
    vertex 18.53553390593274 -1.127986593019159e-14 23.53553390593273
    vertex 19.330127018922198 -5.000000000000013 22.499999999999996
    vertex 18.53553390593274 -5.000000000000013 23.53553390593273
  endloop
endfacet
facet normal -0.7933533402912354 2.7034438199567774e-16 -0.6087614290087207
  outer loop
    vertex 19.330127018922198 -5.000000000000013 22.499999999999996
    vertex 18.53553390593274 -1.127986593019159e-14 23.53553390593273
    vertex 19.330127018922198 -1.127986593019159e-14 22.499999999999996
  endloop
endfacet
facet normal 0.9914448613738105 5.796527356774045e-17 -0.13052619222005238
  outer loop
    vertex 10.000000000000004 -1.127986593019159e-14 19.999999999999996
    vertex 10.170370868554665 -5.000000000000013 21.294095225512606
    vertex 10.000000000000004 -5.000000000000013 19.999999999999996
  endloop
endfacet
facet normal 0.9914448613738105 5.796527356774045e-17 -0.13052619222005238
  outer loop
    vertex 10.170370868554665 -5.000000000000013 21.294095225512606
    vertex 10.000000000000004 -1.127986593019159e-14 19.999999999999996
    vertex 10.170370868554665 -1.127986593019159e-14 21.294095225512606
  endloop
endfacet
facet normal -0.9914448613738098 5.796527356774199e-17 -0.13052619222005585
  outer loop
    vertex 119.82962913144536 -1.127986593019159e-14 21.294095225512603
    vertex 120.00000000000003 -5.000000000000013 19.999999999999996
    vertex 119.82962913144536 -5.000000000000013 21.294095225512603
  endloop
endfacet
facet normal -0.9914448613738098 5.796527356774199e-17 -0.13052619222005585
  outer loop
    vertex 120.00000000000003 -5.000000000000013 19.999999999999996
    vertex 119.82962913144536 -1.127986593019159e-14 21.294095225512603
    vertex 120.00000000000003 -1.127986593019159e-14 19.999999999999996
  endloop
endfacet
facet normal 0.9238795325112903 -1.6994558310171885e-16 0.38268343236508134
  outer loop
    vertex 110.6698729810778 -1.127986593019159e-14 17.49999999999999
    vertex 110.17037086855467 -5.000000000000013 18.70590477448739
    vertex 110.6698729810778 -5.000000000000013 17.49999999999999
  endloop
endfacet
facet normal 0.9238795325112903 -1.6994558310171885e-16 0.38268343236508134
  outer loop
    vertex 110.17037086855467 -5.000000000000013 18.70590477448739
    vertex 110.6698729810778 -1.127986593019159e-14 17.49999999999999
    vertex 110.17037086855467 -1.127986593019159e-14 18.70590477448739
  endloop
endfacet
facet normal 0.99144486137381 5.796527356774175e-17 -0.1305261922200553
  outer loop
    vertex 110.0 -1.127986593019159e-14 19.999999999999996
    vertex 110.17037086855467 -5.000000000000013 21.29409522551261
    vertex 110.0 -5.000000000000013 19.999999999999996
  endloop
endfacet
facet normal 0.99144486137381 5.796527356774175e-17 -0.1305261922200553
  outer loop
    vertex 110.17037086855467 -5.000000000000013 21.29409522551261
    vertex 110.0 -1.127986593019159e-14 19.999999999999996
    vertex 110.17037086855467 -1.127986593019159e-14 21.29409522551261
  endloop
endfacet
facet normal -0.13052619222005188 -4.402899650974003e-16 0.9914448613738104
  outer loop
    vertex 16.294095225512606 -5.000000000000013 15.170370868554654
    vertex 15.000000000000004 -1.127986593019159e-14 15.0
    vertex 15.000000000000004 -5.000000000000013 14.999999999999995
  endloop
endfacet
facet normal -0.13052619222005188 -4.402899650974003e-16 0.9914448613738104
  outer loop
    vertex 15.000000000000004 -1.127986593019159e-14 15.0
    vertex 16.294095225512606 -5.000000000000013 15.170370868554654
    vertex 16.294095225512606 -1.127986593019159e-14 15.17037086855466
  endloop
endfacet
facet normal 0.13052619222005188 -4.402899650974003e-16 0.9914448613738104
  outer loop
    vertex 115.00000000000001 -5.000000000000013 14.999999999999984
    vertex 113.70590477448741 -1.127986593019159e-14 15.170370868554642
    vertex 113.70590477448741 -5.000000000000013 15.170370868554642
  endloop
endfacet
facet normal 0.13052619222005188 -4.402899650974003e-16 0.9914448613738104
  outer loop
    vertex 113.70590477448741 -1.127986593019159e-14 15.170370868554642
    vertex 115.00000000000001 -5.000000000000013 14.999999999999984
    vertex 115.00000000000001 -1.127986593019159e-14 14.999999999999984
  endloop
endfacet
facet normal 0.9238795325112872 -1.6994558310172233e-16 0.38268343236508917
  outer loop
    vertex 10.66987298107781 -1.127986593019159e-14 17.5
    vertex 10.170370868554663 -5.000000000000013 18.705904774487394
    vertex 10.66987298107781 -5.000000000000013 17.499999999999996
  endloop
endfacet
facet normal 0.9238795325112872 -1.6994558310172233e-16 0.38268343236508917
  outer loop
    vertex 10.170370868554663 -5.000000000000013 18.705904774487394
    vertex 10.66987298107781 -1.127986593019159e-14 17.5
    vertex 10.170370868554663 -1.127986593019159e-14 18.705904774487394
  endloop
endfacet
facet normal 8.964225723919758e-18 1.0 4.503371895297238e-16
  outer loop
    vertex 7.04991620636974e-16 -60.000000000000014 24.999999999999957
    vertex 130.0 -60.0 9.99999999999997
    vertex 0.0 -60.0 9.99999999999997
  endloop
endfacet
facet normal 8.964225723919758e-18 1.0 4.503371895297238e-16
  outer loop
    vertex 130.0 -60.0 9.99999999999997
    vertex 7.04991620636974e-16 -60.000000000000014 24.999999999999957
    vertex 20.000000000000007 -60.0 24.999999999999954
  endloop
endfacet
facet normal 8.964225723919758e-18 1.0 4.503371895297238e-16
  outer loop
    vertex 20.000000000000007 -60.000000000000014 34.99999999999995
    vertex 110.0 -60.0 24.999999999999954
    vertex 20.000000000000007 -60.0 24.999999999999954
  endloop
endfacet
facet normal 8.964225723919758e-18 1.0 4.503371895297238e-16
  outer loop
    vertex 110.0 -60.0 24.999999999999954
    vertex 20.000000000000007 -60.000000000000014 34.99999999999995
    vertex 110.0 -60.000000000000014 34.99999999999995
  endloop
endfacet
facet normal 8.964225723919758e-18 1.0 4.503371895297238e-16
  outer loop
    vertex 20.000000000000007 -60.0 24.999999999999954
    vertex 130.0 -60.000000000000014 24.999999999999954
    vertex 130.0 -60.0 9.99999999999997
  endloop
endfacet
facet normal 8.964225723919758e-18 1.0 4.503371895297238e-16
  outer loop
    vertex 130.0 -60.000000000000014 24.999999999999954
    vertex 20.000000000000007 -60.0 24.999999999999954
    vertex 110.0 -60.0 24.999999999999954
  endloop
endfacet
facet normal 0.0 -1.0 -4.440892098500626e-16
  outer loop
    vertex 100.0 -25.00000000000003 34.999999999999964
    vertex 30.000000000000014 -25.00000000000001 9.999999999999988
    vertex 100.0 -25.00000000000001 9.999999999999988
  endloop
endfacet
facet normal 0.0 -1.0 -4.440892098500626e-16
  outer loop
    vertex 30.000000000000014 -25.00000000000001 9.999999999999988
    vertex 100.0 -25.00000000000003 34.999999999999964
    vertex 30.000000000000014 -25.00000000000003 34.999999999999964
  endloop
endfacet
facet normal 0.0 -4.440892098500626e-16 1.0
  outer loop
    vertex 0.0 -60.0 9.99999999999997
    vertex 20.000000000000007 -48.000000000000014 9.999999999999977
    vertex 0.0 -5.000000000000013 9.999999999999996
  endloop
endfacet
facet normal 0.0 -4.440892098500626e-16 1.0
  outer loop
    vertex 20.000000000000007 -48.000000000000014 9.999999999999977
    vertex 0.0 -60.0 9.99999999999997
    vertex 130.0 -60.0 9.99999999999997
  endloop
endfacet
facet normal 0.0 -4.440892098500626e-16 1.0
  outer loop
    vertex 20.000000000000007 -48.000000000000014 9.999999999999977
    vertex 130.0 -60.0 9.99999999999997
    vertex 110.0 -48.000000000000014 9.999999999999977
  endloop
endfacet
facet normal 0.0 -4.440892098500626e-16 1.0
  outer loop
    vertex 110.0 -48.000000000000014 9.999999999999977
    vertex 130.0 -60.0 9.99999999999997
    vertex 110.0 -31.00000000000001 9.999999999999984
  endloop
endfacet
facet normal 0.0 -4.440892098500626e-16 1.0
  outer loop
    vertex 110.0 -31.00000000000001 9.999999999999984
    vertex 30.000000000000014 -25.00000000000001 9.999999999999988
    vertex 20.000000000000007 -31.00000000000001 9.999999999999984
  endloop
endfacet
facet normal 0.0 -4.440892098500626e-16 1.0
  outer loop
    vertex 30.000000000000014 -25.00000000000001 9.999999999999988
    vertex 110.0 -31.00000000000001 9.999999999999984
    vertex 100.0 -25.00000000000001 9.999999999999988
  endloop
endfacet
facet normal 0.0 -4.440892098500626e-16 1.0
  outer loop
    vertex 100.0 -25.00000000000001 9.999999999999988
    vertex 110.0 -31.00000000000001 9.999999999999984
    vertex 100.0 -5.000000000000013 9.999999999999996
  endloop
endfacet
facet normal 0.0 -4.440892098500626e-16 1.0
  outer loop
    vertex 100.0 -5.000000000000013 9.999999999999996
    vertex 110.0 -31.00000000000001 9.999999999999984
    vertex 130.0 -5.000000000000013 9.999999999999996
  endloop
endfacet
facet normal 0.0 -4.440892098500626e-16 1.0
  outer loop
    vertex 130.0 -5.000000000000013 9.999999999999996
    vertex 110.0 -31.00000000000001 9.999999999999984
    vertex 130.0 -60.0 9.99999999999997
  endloop
endfacet
facet normal 0.0 -4.440892098500626e-16 1.0
  outer loop
    vertex 0.0 -5.000000000000013 9.999999999999996
    vertex 20.000000000000007 -31.00000000000001 9.999999999999984
    vertex 30.000000000000014 -5.000000000000013 9.999999999999996
  endloop
endfacet
facet normal 0.0 -4.440892098500626e-16 1.0
  outer loop
    vertex 20.000000000000007 -31.00000000000001 9.999999999999984
    vertex 0.0 -5.000000000000013 9.999999999999996
    vertex 20.000000000000007 -48.000000000000014 9.999999999999977
  endloop
endfacet
facet normal 0.0 -4.440892098500626e-16 1.0
  outer loop
    vertex 30.000000000000014 -5.000000000000013 9.999999999999996
    vertex 20.000000000000007 -31.00000000000001 9.999999999999984
    vertex 30.000000000000014 -25.00000000000001 9.999999999999988
  endloop
endfacet
facet normal 0.382683432365086 -4.102849315895833e-16 0.9238795325112884
  outer loop
    vertex 113.70590477448741 -5.000000000000013 15.170370868554642
    vertex 112.5 -1.127986593019159e-14 15.669872981077797
    vertex 112.5 -5.000000000000013 15.66987298107779
  endloop
endfacet
facet normal 0.382683432365086 -4.102849315895833e-16 0.9238795325112884
  outer loop
    vertex 112.5 -1.127986593019159e-14 15.669872981077797
    vertex 113.70590477448741 -5.000000000000013 15.170370868554642
    vertex 113.70590477448741 -1.127986593019159e-14 15.170370868554642
  endloop
endfacet
facet normal 0.793353340291235 -2.703443819956778e-16 0.6087614290087208
  outer loop
    vertex 11.464466094067268 -1.127986593019159e-14 16.464466094067262
    vertex 10.66987298107781 -5.000000000000013 17.499999999999996
    vertex 11.464466094067268 -5.000000000000013 16.464466094067255
  endloop
endfacet
facet normal 0.793353340291235 -2.703443819956778e-16 0.6087614290087208
  outer loop
    vertex 10.66987298107781 -5.000000000000013 17.499999999999996
    vertex 11.464466094067268 -1.127986593019159e-14 16.464466094067262
    vertex 10.66987298107781 -1.127986593019159e-14 17.5
  endloop
endfacet
facet normal -0.99144486137381 -5.796527356774187e-17 0.13052619222005557
  outer loop
    vertex 120.00000000000003 -1.127986593019159e-14 19.999999999999996
    vertex 119.82962913144536 -5.000000000000013 18.70590477448739
    vertex 120.00000000000003 -5.000000000000013 19.999999999999996
  endloop
endfacet
facet normal -0.99144486137381 -5.796527356774187e-17 0.13052619222005557
  outer loop
    vertex 119.82962913144536 -5.000000000000013 18.70590477448739
    vertex 120.00000000000003 -1.127986593019159e-14 19.999999999999996
    vertex 119.82962913144536 -1.127986593019159e-14 18.70590477448739
  endloop
endfacet
facet normal -1.0 0.0 0.0
  outer loop
    vertex 110.0 -31.00000000000001 9.999999999999984
    vertex 110.0 -48.00000000000001 -7.754907827006718e-15
    vertex 110.0 -48.000000000000014 9.999999999999977
  endloop
endfacet
facet normal -1.0 0.0 0.0
  outer loop
    vertex 110.0 -48.00000000000001 -7.754907827006718e-15
    vertex 110.0 -31.00000000000001 9.999999999999984
    vertex 110.0 -31.000000000000004 -7.049916206369744e-16
  endloop
endfacet
facet normal 0.13052619222005157 -4.402899650974003e-16 0.9914448613738104
  outer loop
    vertex 15.000000000000004 -5.000000000000013 14.999999999999995
    vertex 13.705904774487399 -1.127986593019159e-14 15.17037086855466
    vertex 13.705904774487399 -5.000000000000013 15.170370868554654
  endloop
endfacet
facet normal 0.13052619222005157 -4.402899650974003e-16 0.9914448613738104
  outer loop
    vertex 13.705904774487399 -1.127986593019159e-14 15.17037086855466
    vertex 15.000000000000004 -5.000000000000013 14.999999999999995
    vertex 15.000000000000004 -1.127986593019159e-14 15.0
  endloop
endfacet
facet normal 0.9238795325112863 1.6994558310172322e-16 -0.38268343236509117
  outer loop
    vertex 10.170370868554665 -1.127986593019159e-14 21.294095225512606
    vertex 10.669872981077813 -5.000000000000013 22.5
    vertex 10.170370868554665 -5.000000000000013 21.294095225512606
  endloop
endfacet
facet normal 0.9238795325112863 1.6994558310172322e-16 -0.38268343236509117
  outer loop
    vertex 10.669872981077813 -5.000000000000013 22.5
    vertex 10.170370868554665 -1.127986593019159e-14 21.294095225512606
    vertex 10.669872981077813 -1.127986593019159e-14 22.5
  endloop
endfacet
facet normal -1.0 1.1736940910723516e-31 -2.6429241356001977e-16
  outer loop
    vertex 17.5 -1.0000000000000207 35.0
    vertex 17.500000000000004 -5.000000000000013 24.33012701892219
    vertex 17.5 -5.000000000000025 35.0
  endloop
endfacet
facet normal -1.0 1.1736940910723516e-31 -2.6429241356001977e-16
  outer loop
    vertex 17.500000000000004 -5.000000000000013 24.33012701892219
    vertex 17.5 -1.0000000000000207 35.0
    vertex 17.500000000000004 -1.0000000000000207 24.33012701892219
  endloop
endfacet
facet normal 1.0 -1.1736940910723516e-31 2.6429241356001977e-16
  outer loop
    vertex 12.500000000000009 -5.000000000000013 24.33012701892219
    vertex 12.500000000000005 -1.0000000000000207 35.0
    vertex 12.500000000000005 -5.000000000000025 35.0
  endloop
endfacet
facet normal 1.0 -1.1736940910723516e-31 2.6429241356001977e-16
  outer loop
    vertex 12.500000000000005 -1.0000000000000207 35.0
    vertex 12.500000000000009 -5.000000000000013 24.33012701892219
    vertex 12.500000000000009 -1.0000000000000207 24.33012701892219
  endloop
endfacet
facet normal 1.0 0.0 0.0
  outer loop
    vertex 20.000000000000007 -48.00000000000001 -7.754907827006718e-15
    vertex 20.000000000000007 -31.00000000000001 9.999999999999984
    vertex 20.000000000000007 -48.000000000000014 9.999999999999977
  endloop
endfacet
facet normal 1.0 0.0 0.0
  outer loop
    vertex 20.000000000000007 -31.00000000000001 9.999999999999984
    vertex 20.000000000000007 -48.00000000000001 -7.754907827006718e-15
    vertex 20.000000000000007 -31.000000000000004 -7.049916206369744e-16
  endloop
endfacet
facet normal 0.0 4.440892098500626e-16 -1.0
  outer loop
    vertex 117.50000000000001 -1.0000000000000207 35.0
    vertex 112.50000000000001 -5.000000000000025 35.0
    vertex 112.50000000000001 -1.0000000000000207 35.0
  endloop
endfacet
facet normal 0.0 4.440892098500626e-16 -1.0
  outer loop
    vertex 112.50000000000001 -5.000000000000025 35.0
    vertex 117.50000000000001 -1.0000000000000207 35.0
    vertex 117.50000000000001 -5.000000000000025 35.0
  endloop
endfacet
facet normal -0.9238795325112903 1.6994558310171885e-16 -0.38268343236508134
  outer loop
    vertex 119.33012701892223 -1.127986593019159e-14 22.5
    vertex 119.82962913144536 -5.000000000000013 21.294095225512603
    vertex 119.33012701892223 -5.000000000000013 22.5
  endloop
endfacet
facet normal -0.9238795325112903 1.6994558310171885e-16 -0.38268343236508134
  outer loop
    vertex 119.82962913144536 -5.000000000000013 21.294095225512603
    vertex 119.33012701892223 -1.127986593019159e-14 22.5
    vertex 119.82962913144536 -1.127986593019159e-14 21.294095225512603
  endloop
endfacet
facet normal 0.0 -1.1279865930191585e-15 1.0
  outer loop
    vertex 110.0 -65.00000000000001 34.99999999999995
    vertex 20.000000000000007 -60.000000000000014 34.99999999999995
    vertex 20.000000000000007 -65.00000000000001 34.99999999999995
  endloop
endfacet
facet normal 0.0 -1.1279865930191585e-15 1.0
  outer loop
    vertex 20.000000000000007 -60.000000000000014 34.99999999999995
    vertex 110.0 -65.00000000000001 34.99999999999995
    vertex 110.0 -60.000000000000014 34.99999999999995
  endloop
endfacet
facet normal -0.793353340291232 2.703443819956797e-16 -0.6087614290087251
  outer loop
    vertex 118.53553390593277 -1.127986593019159e-14 23.53553390593274
    vertex 119.33012701892223 -5.000000000000013 22.5
    vertex 118.53553390593277 -5.000000000000013 23.53553390593274
  endloop
endfacet
facet normal -0.793353340291232 2.703443819956797e-16 -0.6087614290087251
  outer loop
    vertex 119.33012701892223 -5.000000000000013 22.5
    vertex 118.53553390593277 -1.127986593019159e-14 23.53553390593274
    vertex 119.33012701892223 -1.127986593019159e-14 22.5
  endloop
endfacet
facet normal -0.6087614290087207 -3.5231965802184257e-16 0.7933533402912354
  outer loop
    vertex 18.535533905932738 -5.000000000000013 16.464466094067255
    vertex 17.5 -1.127986593019159e-14 15.669872981077807
    vertex 17.5 -5.000000000000013 15.669872981077802
  endloop
endfacet
facet normal -0.6087614290087207 -3.5231965802184257e-16 0.7933533402912354
  outer loop
    vertex 17.5 -1.127986593019159e-14 15.669872981077807
    vertex 18.535533905932738 -5.000000000000013 16.464466094067255
    vertex 18.535533905932738 -1.127986593019159e-14 16.464466094067262
  endloop
endfacet
facet normal 1.0 0.0 0.0
  outer loop
    vertex 112.50000000000001 -5.000000000000013 24.330127018922205
    vertex 112.50000000000001 -1.0000000000000207 35.0
    vertex 112.50000000000001 -5.000000000000025 35.0
  endloop
endfacet
facet normal 1.0 0.0 0.0
  outer loop
    vertex 112.50000000000001 -1.0000000000000207 35.0
    vertex 112.50000000000001 -5.000000000000013 24.330127018922205
    vertex 112.50000000000001 -1.0000000000000207 24.330127018922205
  endloop
endfacet
facet normal -8.341763955265862e-18 -1.0 -3.6618447908172745e-16
  outer loop
    vertex 110.0 -65.00000000000001 34.99999999999995
    vertex 20.000000000000007 -65.0 24.99999999999995
    vertex 110.0 -65.0 24.99999999999995
  endloop
endfacet
facet normal -8.341763955265862e-18 -1.0 -3.6618447908172745e-16
  outer loop
    vertex 20.000000000000007 -65.0 24.99999999999995
    vertex 110.0 -65.00000000000001 34.99999999999995
    vertex 20.000000000000007 -65.00000000000001 34.99999999999995
  endloop
endfacet
facet normal -8.341763955265862e-18 -1.0 -3.6618447908172745e-16
  outer loop
    vertex 130.0 -65.00000000000001 24.99999999999995
    vertex 0.0 -65.0 -2.8904656446115947e-14
    vertex 130.0 -65.0 -2.8904656446115947e-14
  endloop
endfacet
facet normal -8.341763955265862e-18 -1.0 -3.6618447908172745e-16
  outer loop
    vertex 0.0 -65.0 -2.8904656446115947e-14
    vertex 130.0 -65.00000000000001 24.99999999999995
    vertex 20.000000000000007 -65.0 24.99999999999995
  endloop
endfacet
facet normal -8.341763955265862e-18 -1.0 -3.6618447908172745e-16
  outer loop
    vertex 0.0 -65.0 -2.8904656446115947e-14
    vertex 20.000000000000007 -65.0 24.99999999999995
    vertex 7.04991620636974e-16 -65.00000000000001 24.99999999999995
  endloop
endfacet
facet normal -8.341763955265862e-18 -1.0 -3.6618447908172745e-16
  outer loop
    vertex 20.000000000000007 -65.0 24.99999999999995
    vertex 130.0 -65.00000000000001 24.99999999999995
    vertex 110.0 -65.0 24.99999999999995
  endloop
endfacet
facet normal 0.793353340291232 2.703443819956797e-16 -0.6087614290087251
  outer loop
    vertex 110.6698729810778 -1.127986593019159e-14 22.500000000000007
    vertex 111.46446609406726 -5.000000000000013 23.535533905932745
    vertex 110.6698729810778 -5.000000000000013 22.500000000000007
  endloop
endfacet
facet normal 0.793353340291232 2.703443819956797e-16 -0.6087614290087251
  outer loop
    vertex 111.46446609406726 -5.000000000000013 23.535533905932745
    vertex 110.6698729810778 -1.127986593019159e-14 22.500000000000007
    vertex 111.46446609406726 -1.127986593019159e-14 23.535533905932745
  endloop
endfacet
facet normal 0.9238795325112903 1.6994558310171885e-16 -0.38268343236508134
  outer loop
    vertex 110.17037086855467 -1.127986593019159e-14 21.29409522551261
    vertex 110.6698729810778 -5.000000000000013 22.500000000000007
    vertex 110.17037086855467 -5.000000000000013 21.29409522551261
  endloop
endfacet
facet normal 0.9238795325112903 1.6994558310171885e-16 -0.38268343236508134
  outer loop
    vertex 110.6698729810778 -5.000000000000013 22.500000000000007
    vertex 110.17037086855467 -1.127986593019159e-14 21.29409522551261
    vertex 110.6698729810778 -1.127986593019159e-14 22.500000000000007
  endloop
endfacet
facet normal 0.7933533402912354 2.7034438199567774e-16 -0.6087614290087207
  outer loop
    vertex 10.669872981077813 -1.127986593019159e-14 22.5
    vertex 11.464466094067268 -5.000000000000013 23.535533905932734
    vertex 10.669872981077813 -5.000000000000013 22.5
  endloop
endfacet
facet normal 0.7933533402912354 2.7034438199567774e-16 -0.6087614290087207
  outer loop
    vertex 11.464466094067268 -5.000000000000013 23.535533905932734
    vertex 10.669872981077813 -1.127986593019159e-14 22.5
    vertex 11.464466094067268 -1.127986593019159e-14 23.535533905932734
  endloop
endfacet
facet normal 0.0 1.0 4.440892098500626e-16
  outer loop
    vertex 20.000000000000007 -48.000000000000014 9.999999999999977
    vertex 110.0 -48.00000000000001 -7.754907827006718e-15
    vertex 20.000000000000007 -48.00000000000001 -7.754907827006718e-15
  endloop
endfacet
facet normal 0.0 1.0 4.440892098500626e-16
  outer loop
    vertex 110.0 -48.00000000000001 -7.754907827006718e-15
    vertex 20.000000000000007 -48.000000000000014 9.999999999999977
    vertex 110.0 -48.000000000000014 9.999999999999977
  endloop
endfacet
facet normal 0.6087614290087169 3.5231965802184385e-16 -0.7933533402912383
  outer loop
    vertex 111.50000000000001 -1.127986593019159e-14 23.56280003094325
    vertex 111.46446609406726 -5.000000000000013 23.535533905932745
    vertex 111.46446609406726 -1.127986593019159e-14 23.535533905932745
  endloop
endfacet
facet normal 0.6087614290087169 3.5231965802184385e-16 -0.7933533402912383
  outer loop
    vertex 111.46446609406726 -5.000000000000013 23.535533905932745
    vertex 111.50000000000001 -1.127986593019159e-14 23.56280003094325
    vertex 111.50000000000001 -1.0000000000000207 23.56280003094325
  endloop
endfacet
facet normal 0.6087614290087169 3.5231965802184385e-16 -0.7933533402912383
  outer loop
    vertex 111.46446609406726 -5.000000000000013 23.535533905932745
    vertex 111.50000000000001 -1.0000000000000207 23.56280003094325
    vertex 112.50000000000001 -5.000000000000013 24.330127018922205
  endloop
endfacet
facet normal 0.6087614290087169 3.5231965802184385e-16 -0.7933533402912383
  outer loop
    vertex 112.50000000000001 -5.000000000000013 24.330127018922205
    vertex 111.50000000000001 -1.0000000000000207 23.56280003094325
    vertex 112.50000000000001 -1.0000000000000207 24.330127018922205
  endloop
endfacet
facet normal -0.9238795325112905 -1.6994558310171868e-16 0.38268343236508096
  outer loop
    vertex 119.82962913144536 -1.127986593019159e-14 18.70590477448739
    vertex 119.33012701892223 -5.000000000000013 17.49999999999999
    vertex 119.82962913144536 -5.000000000000013 18.70590477448739
  endloop
endfacet
facet normal -0.9238795325112905 -1.6994558310171868e-16 0.38268343236508096
  outer loop
    vertex 119.33012701892223 -5.000000000000013 17.49999999999999
    vertex 119.82962913144536 -1.127986593019159e-14 18.70590477448739
    vertex 119.33012701892223 -1.127986593019159e-14 17.49999999999999
  endloop
endfacet
facet normal 0.6087614290087207 -3.5231965802184257e-16 0.7933533402912354
  outer loop
    vertex 12.500000000000004 -5.000000000000013 15.669872981077802
    vertex 11.464466094067268 -1.127986593019159e-14 16.464466094067262
    vertex 11.464466094067268 -5.000000000000013 16.464466094067255
  endloop
endfacet
facet normal 0.6087614290087207 -3.5231965802184257e-16 0.7933533402912354
  outer loop
    vertex 11.464466094067268 -1.127986593019159e-14 16.464466094067262
    vertex 12.500000000000004 -5.000000000000013 15.669872981077802
    vertex 12.500000000000004 -1.127986593019159e-14 15.669872981077807
  endloop
endfacet
facet normal 8.363391879208433e-20 -1.0 -4.465914362737659e-16
  outer loop
    vertex 100.0 -5.000000000000013 9.999999999999996
    vertex 110.6698729810778 -5.000000000000013 17.49999999999999
    vertex 100.0 -5.000000000000025 34.99999999999998
  endloop
endfacet
facet normal 8.363391879208433e-20 -1.0 -4.465914362737659e-16
  outer loop
    vertex 110.6698729810778 -5.000000000000013 17.49999999999999
    vertex 100.0 -5.000000000000013 9.999999999999996
    vertex 111.46446609406726 -5.000000000000013 16.46446609406725
  endloop
endfacet
facet normal 8.363391879208433e-20 -1.0 -4.465914362737659e-16
  outer loop
    vertex 111.46446609406726 -5.000000000000013 16.46446609406725
    vertex 100.0 -5.000000000000013 9.999999999999996
    vertex 112.5 -5.000000000000013 15.66987298107779
  endloop
endfacet
facet normal 8.363391879208433e-20 -1.0 -4.465914362737659e-16
  outer loop
    vertex 112.5 -5.000000000000013 15.66987298107779
    vertex 100.0 -5.000000000000013 9.999999999999996
    vertex 113.70590477448741 -5.000000000000013 15.170370868554642
  endloop
endfacet
facet normal 8.363391879208433e-20 -1.0 -4.465914362737659e-16
  outer loop
    vertex 113.70590477448741 -5.000000000000013 15.170370868554642
    vertex 100.0 -5.000000000000013 9.999999999999996
    vertex 115.00000000000001 -5.000000000000013 14.999999999999984
  endloop
endfacet
facet normal 8.363391879208433e-20 -1.0 -4.465914362737659e-16
  outer loop
    vertex 100.0 -5.000000000000025 34.99999999999998
    vertex 110.6698729810778 -5.000000000000013 17.49999999999999
    vertex 110.17037086855467 -5.000000000000013 18.70590477448739
  endloop
endfacet
facet normal 8.363391879208433e-20 -1.0 -4.465914362737659e-16
  outer loop
    vertex 100.0 -5.000000000000025 34.99999999999998
    vertex 110.17037086855467 -5.000000000000013 18.70590477448739
    vertex 110.0 -5.000000000000013 19.999999999999996
  endloop
endfacet
facet normal 8.363391879208433e-20 -1.0 -4.465914362737659e-16
  outer loop
    vertex 100.0 -5.000000000000025 34.99999999999998
    vertex 110.0 -5.000000000000013 19.999999999999996
    vertex 110.17037086855467 -5.000000000000013 21.29409522551261
  endloop
endfacet
facet normal 8.363391879208433e-20 -1.0 -4.465914362737659e-16
  outer loop
    vertex 100.0 -5.000000000000025 34.99999999999998
    vertex 110.17037086855467 -5.000000000000013 21.29409522551261
    vertex 110.6698729810778 -5.000000000000013 22.500000000000007
  endloop
endfacet
facet normal 8.363391879208433e-20 -1.0 -4.465914362737659e-16
  outer loop
    vertex 100.0 -5.000000000000025 34.99999999999998
    vertex 110.6698729810778 -5.000000000000013 22.500000000000007
    vertex 111.46446609406726 -5.000000000000013 23.535533905932745
  endloop
endfacet
facet normal 8.363391879208433e-20 -1.0 -4.465914362737659e-16
  outer loop
    vertex 100.0 -5.000000000000025 34.99999999999998
    vertex 111.46446609406726 -5.000000000000013 23.535533905932745
    vertex 112.50000000000001 -5.000000000000013 24.330127018922205
  endloop
endfacet
facet normal 8.363391879208433e-20 -1.0 -4.465914362737659e-16
  outer loop
    vertex 100.0 -5.000000000000025 34.99999999999998
    vertex 112.50000000000001 -5.000000000000013 24.330127018922205
    vertex 112.50000000000001 -5.000000000000025 35.0
  endloop
endfacet
facet normal 8.363391879208433e-20 -1.0 -4.465914362737659e-16
  outer loop
    vertex 100.0 -5.000000000000025 34.99999999999998
    vertex 112.50000000000001 -5.000000000000025 35.0
    vertex 30.000000000000014 -5.000000000000025 34.99999999999998
  endloop
endfacet
facet normal 8.363391879208433e-20 -1.0 -4.465914362737659e-16
  outer loop
    vertex 130.0 -5.000000000000013 9.999999999999996
    vertex 116.29409522551262 -5.000000000000013 15.170370868554642
    vertex 100.0 -5.000000000000013 9.999999999999996
  endloop
endfacet
facet normal 8.363391879208433e-20 -1.0 -4.465914362737659e-16
  outer loop
    vertex 116.29409522551262 -5.000000000000013 15.170370868554642
    vertex 130.0 -5.000000000000013 9.999999999999996
    vertex 117.50000000000001 -5.000000000000013 15.66987298107779
  endloop
endfacet
facet normal 8.363391879208433e-20 -1.0 -4.465914362737659e-16
  outer loop
    vertex 117.50000000000001 -5.000000000000013 15.66987298107779
    vertex 130.0 -5.000000000000013 9.999999999999996
    vertex 118.53553390593277 -5.000000000000013 16.46446609406725
  endloop
endfacet
facet normal 8.363391879208433e-20 -1.0 -4.465914362737659e-16
  outer loop
    vertex 118.53553390593277 -5.000000000000013 16.46446609406725
    vertex 130.0 -5.000000000000013 9.999999999999996
    vertex 119.33012701892223 -5.000000000000013 17.49999999999999
  endloop
endfacet
facet normal 8.363391879208433e-20 -1.0 -4.465914362737659e-16
  outer loop
    vertex 119.33012701892223 -5.000000000000013 17.49999999999999
    vertex 130.0 -5.000000000000013 9.999999999999996
    vertex 119.82962913144536 -5.000000000000013 18.70590477448739
  endloop
endfacet
facet normal 8.363391879208433e-20 -1.0 -4.465914362737659e-16
  outer loop
    vertex 119.82962913144536 -5.000000000000013 18.70590477448739
    vertex 130.0 -5.000000000000013 9.999999999999996
    vertex 130.0 -5.000000000000025 54.99999999999999
  endloop
endfacet
facet normal 8.363391879208433e-20 -1.0 -4.465914362737659e-16
  outer loop
    vertex 100.0 -5.000000000000013 9.999999999999996
    vertex 116.29409522551262 -5.000000000000013 15.170370868554642
    vertex 115.00000000000001 -5.000000000000013 14.999999999999984
  endloop
endfacet
facet normal 8.363391879208433e-20 -1.0 -4.465914362737659e-16
  outer loop
    vertex 119.82962913144536 -5.000000000000013 18.70590477448739
    vertex 130.0 -5.000000000000025 54.99999999999999
    vertex 120.00000000000003 -5.000000000000013 19.999999999999996
  endloop
endfacet
facet normal 8.363391879208433e-20 -1.0 -4.465914362737659e-16
  outer loop
    vertex 120.00000000000003 -5.000000000000013 19.999999999999996
    vertex 130.0 -5.000000000000025 54.99999999999999
    vertex 119.82962913144536 -5.000000000000013 21.294095225512603
  endloop
endfacet
facet normal 8.363391879208433e-20 -1.0 -4.465914362737659e-16
  outer loop
    vertex 119.82962913144536 -5.000000000000013 21.294095225512603
    vertex 130.0 -5.000000000000025 54.99999999999999
    vertex 119.33012701892223 -5.000000000000013 22.5
  endloop
endfacet
facet normal 8.363391879208433e-20 -1.0 -4.465914362737659e-16
  outer loop
    vertex 119.33012701892223 -5.000000000000013 22.5
    vertex 130.0 -5.000000000000025 54.99999999999999
    vertex 118.53553390593277 -5.000000000000013 23.53553390593274
  endloop
endfacet
facet normal 8.363391879208433e-20 -1.0 -4.465914362737659e-16
  outer loop
    vertex 118.53553390593277 -5.000000000000013 23.53553390593274
    vertex 130.0 -5.000000000000025 54.99999999999999
    vertex 117.50000000000003 -5.000000000000013 24.3301270189222
  endloop
endfacet
facet normal 8.363391879208433e-20 -1.0 -4.465914362737659e-16
  outer loop
    vertex 117.50000000000003 -5.000000000000013 24.3301270189222
    vertex 130.0 -5.000000000000025 54.99999999999999
    vertex 117.50000000000001 -5.000000000000025 35.0
  endloop
endfacet
facet normal 8.363391879208433e-20 -1.0 -4.465914362737659e-16
  outer loop
    vertex 117.50000000000001 -5.000000000000025 35.0
    vertex 130.0 -5.000000000000025 54.99999999999999
    vertex 112.50000000000001 -5.000000000000025 35.0
  endloop
endfacet
facet normal 8.363391879208433e-20 -1.0 -4.465914362737659e-16
  outer loop
    vertex 112.50000000000001 -5.000000000000025 35.0
    vertex 130.0 -5.000000000000025 54.99999999999999
    vertex 17.5 -5.000000000000025 35.0
  endloop
endfacet
facet normal 8.363391879208433e-20 -1.0 -4.465914362737659e-16
  outer loop
    vertex 17.5 -5.000000000000025 35.0
    vertex 130.0 -5.000000000000025 54.99999999999999
    vertex 12.500000000000005 -5.000000000000025 35.0
  endloop
endfacet
facet normal 8.363391879208433e-20 -1.0 -4.465914362737659e-16
  outer loop
    vertex 0.0 -5.000000000000013 9.999999999999996
    vertex 10.170370868554663 -5.000000000000013 18.705904774487394
    vertex 0.0 -5.000000000000025 54.99999999999999
  endloop
endfacet
facet normal 8.363391879208433e-20 -1.0 -4.465914362737659e-16
  outer loop
    vertex 10.170370868554663 -5.000000000000013 18.705904774487394
    vertex 0.0 -5.000000000000013 9.999999999999996
    vertex 10.66987298107781 -5.000000000000013 17.499999999999996
  endloop
endfacet
facet normal 8.363391879208433e-20 -1.0 -4.465914362737659e-16
  outer loop
    vertex 10.66987298107781 -5.000000000000013 17.499999999999996
    vertex 0.0 -5.000000000000013 9.999999999999996
    vertex 11.464466094067268 -5.000000000000013 16.464466094067255
  endloop
endfacet
facet normal 8.363391879208433e-20 -1.0 -4.465914362737659e-16
  outer loop
    vertex 11.464466094067268 -5.000000000000013 16.464466094067255
    vertex 0.0 -5.000000000000013 9.999999999999996
    vertex 12.500000000000004 -5.000000000000013 15.669872981077802
  endloop
endfacet
facet normal 8.363391879208433e-20 -1.0 -4.465914362737659e-16
  outer loop
    vertex 12.500000000000004 -5.000000000000013 15.669872981077802
    vertex 0.0 -5.000000000000013 9.999999999999996
    vertex 13.705904774487399 -5.000000000000013 15.170370868554654
  endloop
endfacet
facet normal 8.363391879208433e-20 -1.0 -4.465914362737659e-16
  outer loop
    vertex 13.705904774487399 -5.000000000000013 15.170370868554654
    vertex 0.0 -5.000000000000013 9.999999999999996
    vertex 15.000000000000004 -5.000000000000013 14.999999999999995
  endloop
endfacet
facet normal 8.363391879208433e-20 -1.0 -4.465914362737659e-16
  outer loop
    vertex 0.0 -5.000000000000025 54.99999999999999
    vertex 10.170370868554663 -5.000000000000013 18.705904774487394
    vertex 10.000000000000004 -5.000000000000013 19.999999999999996
  endloop
endfacet
facet normal 8.363391879208433e-20 -1.0 -4.465914362737659e-16
  outer loop
    vertex 0.0 -5.000000000000025 54.99999999999999
    vertex 10.000000000000004 -5.000000000000013 19.999999999999996
    vertex 10.170370868554665 -5.000000000000013 21.294095225512606
  endloop
endfacet
facet normal 8.363391879208433e-20 -1.0 -4.465914362737659e-16
  outer loop
    vertex 0.0 -5.000000000000025 54.99999999999999
    vertex 10.170370868554665 -5.000000000000013 21.294095225512606
    vertex 10.669872981077813 -5.000000000000013 22.5
  endloop
endfacet
facet normal 8.363391879208433e-20 -1.0 -4.465914362737659e-16
  outer loop
    vertex 0.0 -5.000000000000025 54.99999999999999
    vertex 10.669872981077813 -5.000000000000013 22.5
    vertex 11.464466094067268 -5.000000000000013 23.535533905932734
  endloop
endfacet
facet normal 8.363391879208433e-20 -1.0 -4.465914362737659e-16
  outer loop
    vertex 0.0 -5.000000000000025 54.99999999999999
    vertex 11.464466094067268 -5.000000000000013 23.535533905932734
    vertex 12.500000000000009 -5.000000000000013 24.33012701892219
  endloop
endfacet
facet normal 8.363391879208433e-20 -1.0 -4.465914362737659e-16
  outer loop
    vertex 0.0 -5.000000000000025 54.99999999999999
    vertex 12.500000000000009 -5.000000000000013 24.33012701892219
    vertex 12.500000000000005 -5.000000000000025 35.0
  endloop
endfacet
facet normal 8.363391879208433e-20 -1.0 -4.465914362737659e-16
  outer loop
    vertex 0.0 -5.000000000000025 54.99999999999999
    vertex 12.500000000000005 -5.000000000000025 35.0
    vertex 130.0 -5.000000000000025 54.99999999999999
  endloop
endfacet
facet normal 8.363391879208433e-20 -1.0 -4.465914362737659e-16
  outer loop
    vertex 30.000000000000014 -5.000000000000013 9.999999999999996
    vertex 16.294095225512606 -5.000000000000013 15.170370868554654
    vertex 0.0 -5.000000000000013 9.999999999999996
  endloop
endfacet
facet normal 8.363391879208433e-20 -1.0 -4.465914362737659e-16
  outer loop
    vertex 16.294095225512606 -5.000000000000013 15.170370868554654
    vertex 30.000000000000014 -5.000000000000013 9.999999999999996
    vertex 17.5 -5.000000000000013 15.669872981077802
  endloop
endfacet
facet normal 8.363391879208433e-20 -1.0 -4.465914362737659e-16
  outer loop
    vertex 17.5 -5.000000000000013 15.669872981077802
    vertex 30.000000000000014 -5.000000000000013 9.999999999999996
    vertex 18.535533905932738 -5.000000000000013 16.464466094067255
  endloop
endfacet
facet normal 8.363391879208433e-20 -1.0 -4.465914362737659e-16
  outer loop
    vertex 18.535533905932738 -5.000000000000013 16.464466094067255
    vertex 30.000000000000014 -5.000000000000013 9.999999999999996
    vertex 19.330127018922195 -5.000000000000013 17.499999999999996
  endloop
endfacet
facet normal 8.363391879208433e-20 -1.0 -4.465914362737659e-16
  outer loop
    vertex 19.330127018922195 -5.000000000000013 17.499999999999996
    vertex 30.000000000000014 -5.000000000000013 9.999999999999996
    vertex 30.000000000000014 -5.000000000000025 34.99999999999998
  endloop
endfacet
facet normal 8.363391879208433e-20 -1.0 -4.465914362737659e-16
  outer loop
    vertex 0.0 -5.000000000000013 9.999999999999996
    vertex 16.294095225512606 -5.000000000000013 15.170370868554654
    vertex 15.000000000000004 -5.000000000000013 14.999999999999995
  endloop
endfacet
facet normal 8.363391879208433e-20 -1.0 -4.465914362737659e-16
  outer loop
    vertex 19.330127018922195 -5.000000000000013 17.499999999999996
    vertex 30.000000000000014 -5.000000000000025 34.99999999999998
    vertex 19.829629131445344 -5.000000000000013 18.70590477448739
  endloop
endfacet
facet normal 8.363391879208433e-20 -1.0 -4.465914362737659e-16
  outer loop
    vertex 19.829629131445344 -5.000000000000013 18.70590477448739
    vertex 30.000000000000014 -5.000000000000025 34.99999999999998
    vertex 20.000000000000004 -5.000000000000013 19.999999999999996
  endloop
endfacet
facet normal 8.363391879208433e-20 -1.0 -4.465914362737659e-16
  outer loop
    vertex 20.000000000000004 -5.000000000000013 19.999999999999996
    vertex 30.000000000000014 -5.000000000000025 34.99999999999998
    vertex 19.829629131445344 -5.000000000000013 21.2940952255126
  endloop
endfacet
facet normal 8.363391879208433e-20 -1.0 -4.465914362737659e-16
  outer loop
    vertex 19.829629131445344 -5.000000000000013 21.2940952255126
    vertex 30.000000000000014 -5.000000000000025 34.99999999999998
    vertex 19.330127018922198 -5.000000000000013 22.499999999999996
  endloop
endfacet
facet normal 8.363391879208433e-20 -1.0 -4.465914362737659e-16
  outer loop
    vertex 19.330127018922198 -5.000000000000013 22.499999999999996
    vertex 30.000000000000014 -5.000000000000025 34.99999999999998
    vertex 18.53553390593274 -5.000000000000013 23.53553390593273
  endloop
endfacet
facet normal 8.363391879208433e-20 -1.0 -4.465914362737659e-16
  outer loop
    vertex 18.53553390593274 -5.000000000000013 23.53553390593273
    vertex 30.000000000000014 -5.000000000000025 34.99999999999998
    vertex 17.500000000000004 -5.000000000000013 24.33012701892219
  endloop
endfacet
facet normal 8.363391879208433e-20 -1.0 -4.465914362737659e-16
  outer loop
    vertex 17.500000000000004 -5.000000000000013 24.33012701892219
    vertex 30.000000000000014 -5.000000000000025 34.99999999999998
    vertex 17.5 -5.000000000000025 35.0
  endloop
endfacet
facet normal 8.363391879208433e-20 -1.0 -4.465914362737659e-16
  outer loop
    vertex 17.5 -5.000000000000025 35.0
    vertex 30.000000000000014 -5.000000000000025 34.99999999999998
    vertex 112.50000000000001 -5.000000000000025 35.0
  endloop
endfacet
facet normal -0.6087614290087265 3.5231965802184055e-16 -0.7933533402912308
  outer loop
    vertex 118.53553390593277 -1.127986593019159e-14 23.53553390593274
    vertex 118.50000000000003 -1.0000000000000207 23.562800030943233
    vertex 118.50000000000003 -1.127986593019159e-14 23.562800030943233
  endloop
endfacet
facet normal -0.6087614290087265 3.5231965802184055e-16 -0.7933533402912308
  outer loop
    vertex 118.50000000000003 -1.0000000000000207 23.562800030943233
    vertex 117.50000000000003 -5.000000000000013 24.3301270189222
    vertex 117.50000000000003 -1.0000000000000207 24.3301270189222
  endloop
endfacet
facet normal -0.6087614290087265 3.5231965802184055e-16 -0.7933533402912308
  outer loop
    vertex 117.50000000000003 -5.000000000000013 24.3301270189222
    vertex 118.50000000000003 -1.0000000000000207 23.562800030943233
    vertex 118.53553390593277 -5.000000000000013 23.53553390593274
  endloop
endfacet
facet normal -0.6087614290087265 3.5231965802184055e-16 -0.7933533402912308
  outer loop
    vertex 118.53553390593277 -5.000000000000013 23.53553390593274
    vertex 118.50000000000003 -1.0000000000000207 23.562800030943233
    vertex 118.53553390593277 -1.127986593019159e-14 23.53553390593274
  endloop
endfacet
facet normal 1.0 0.0 0.0
  outer loop
    vertex 110.0 -65.0 24.99999999999995
    vertex 110.0 -60.000000000000014 34.99999999999995
    vertex 110.0 -65.00000000000001 34.99999999999995
  endloop
endfacet
facet normal 1.0 0.0 0.0
  outer loop
    vertex 110.0 -60.000000000000014 34.99999999999995
    vertex 110.0 -65.0 24.99999999999995
    vertex 110.0 -60.0 24.999999999999954
  endloop
endfacet
facet normal 0.0 0.0 1.0
  outer loop
    vertex 130.0 -5.000000000000025 54.99999999999999
    vertex 0.0 -3.3839597790574766e-14 54.99999999999999
    vertex 0.0 -5.000000000000025 54.99999999999999
  endloop
endfacet
facet normal 0.0 0.0 1.0
  outer loop
    vertex 0.0 -3.3839597790574766e-14 54.99999999999999
    vertex 130.0 -5.000000000000025 54.99999999999999
    vertex 130.0 -3.3839597790574766e-14 54.99999999999999
  endloop
endfacet
facet normal 0.6087614290087251 -3.523196580218409e-16 0.7933533402912316
  outer loop
    vertex 112.5 -5.000000000000013 15.66987298107779
    vertex 111.46446609406726 -1.127986593019159e-14 16.46446609406725
    vertex 111.46446609406726 -5.000000000000013 16.46446609406725
  endloop
endfacet
facet normal 0.6087614290087251 -3.523196580218409e-16 0.7933533402912316
  outer loop
    vertex 111.46446609406726 -1.127986593019159e-14 16.46446609406725
    vertex 112.5 -5.000000000000013 15.66987298107779
    vertex 112.5 -1.127986593019159e-14 15.669872981077797
  endloop
endfacet
facet normal -0.3826834323650895 -4.1028493158958266e-16 0.923879532511287
  outer loop
    vertex 17.5 -5.000000000000013 15.669872981077802
    vertex 16.294095225512606 -1.127986593019159e-14 15.17037086855466
    vertex 16.294095225512606 -5.000000000000013 15.170370868554654
  endloop
endfacet
facet normal -0.3826834323650895 -4.1028493158958266e-16 0.923879532511287
  outer loop
    vertex 16.294095225512606 -1.127986593019159e-14 15.17037086855466
    vertex 17.5 -5.000000000000013 15.669872981077802
    vertex 17.5 -1.127986593019159e-14 15.669872981077807
  endloop
endfacet
facet normal -6.312067451638003e-31 -1.1279865930191585e-15 1.0
  outer loop
    vertex 130.0 -65.00000000000001 24.99999999999995
    vertex 110.0 -60.0 24.999999999999954
    vertex 110.0 -65.0 24.99999999999995
  endloop
endfacet
facet normal -6.312067451638003e-31 -1.1279865930191585e-15 1.0
  outer loop
    vertex 110.0 -60.0 24.999999999999954
    vertex 130.0 -65.00000000000001 24.99999999999995
    vertex 130.0 -60.000000000000014 24.999999999999954
  endloop
endfacet
facet normal -1.0 -1.590442192538711e-31 1.409983241273948e-16
  outer loop
    vertex 20.000000000000007 -60.000000000000014 34.99999999999995
    vertex 20.000000000000007 -65.0 24.99999999999995
    vertex 20.000000000000007 -65.00000000000001 34.99999999999995
  endloop
endfacet
facet normal -1.0 -1.590442192538711e-31 1.409983241273948e-16
  outer loop
    vertex 20.000000000000007 -65.0 24.99999999999995
    vertex 20.000000000000007 -60.000000000000014 34.99999999999995
    vertex 20.000000000000007 -60.0 24.999999999999954
  endloop
endfacet
facet normal 0.99144486137381 -5.796527356774187e-17 0.13052619222005557
  outer loop
    vertex 110.17037086855467 -1.127986593019159e-14 18.70590477448739
    vertex 110.0 -5.000000000000013 19.999999999999996
    vertex 110.17037086855467 -5.000000000000013 18.70590477448739
  endloop
endfacet
facet normal 0.99144486137381 -5.796527356774187e-17 0.13052619222005557
  outer loop
    vertex 110.0 -5.000000000000013 19.999999999999996
    vertex 110.17037086855467 -1.127986593019159e-14 18.70590477448739
    vertex 110.0 -1.127986593019159e-14 19.999999999999996
  endloop
endfacet
facet normal 0.9914448613738104 -5.796527356774023e-17 0.13052619222005188
  outer loop
    vertex 10.170370868554663 -1.127986593019159e-14 18.705904774487394
    vertex 10.000000000000004 -5.000000000000013 19.999999999999996
    vertex 10.170370868554663 -5.000000000000013 18.705904774487394
  endloop
endfacet
facet normal 0.9914448613738104 -5.796527356774023e-17 0.13052619222005188
  outer loop
    vertex 10.000000000000004 -5.000000000000013 19.999999999999996
    vertex 10.170370868554663 -1.127986593019159e-14 18.705904774487394
    vertex 10.000000000000004 -1.127986593019159e-14 19.999999999999996
  endloop
endfacet
facet normal -0.7933533402912314 -2.703443819956799e-16 0.6087614290087255
  outer loop
    vertex 119.33012701892223 -1.127986593019159e-14 17.49999999999999
    vertex 118.53553390593277 -5.000000000000013 16.46446609406725
    vertex 119.33012701892223 -5.000000000000013 17.49999999999999
  endloop
endfacet
facet normal -0.7933533402912314 -2.703443819956799e-16 0.6087614290087255
  outer loop
    vertex 118.53553390593277 -5.000000000000013 16.46446609406725
    vertex 119.33012701892223 -1.127986593019159e-14 17.49999999999999
    vertex 118.53553390593277 -1.127986593019159e-14 16.46446609406725
  endloop
endfacet
facet normal -1.0 9.389552728578821e-31 -2.11433930848016e-15
  outer loop
    vertex 117.50000000000001 -1.0000000000000207 35.0
    vertex 117.50000000000003 -5.000000000000013 24.3301270189222
    vertex 117.50000000000001 -5.000000000000025 35.0
  endloop
endfacet
facet normal -1.0 9.389552728578821e-31 -2.11433930848016e-15
  outer loop
    vertex 117.50000000000003 -5.000000000000013 24.3301270189222
    vertex 117.50000000000001 -1.0000000000000207 35.0
    vertex 117.50000000000003 -1.0000000000000207 24.3301270189222
  endloop
endfacet
facet normal -1.0 0.0 0.0
  outer loop
    vertex 0.0 -3.3839597790574766e-14 54.99999999999999
    vertex 0.0 -5.000000000000013 9.999999999999996
    vertex 0.0 -5.000000000000025 54.99999999999999
  endloop
endfacet
facet normal -1.0 0.0 0.0
  outer loop
    vertex 7.04991620636974e-16 -60.000000000000014 24.999999999999957
    vertex 0.0 -65.0 -2.8904656446115947e-14
    vertex 7.04991620636974e-16 -65.00000000000001 24.99999999999995
  endloop
endfacet
facet normal -1.0 0.0 0.0
  outer loop
    vertex 0.0 -65.0 -2.8904656446115947e-14
    vertex 7.04991620636974e-16 -60.000000000000014 24.999999999999957
    vertex 0.0 -60.0 9.99999999999997
  endloop
endfacet
facet normal -1.0 0.0 0.0
  outer loop
    vertex 0.0 -65.0 -2.8904656446115947e-14
    vertex 0.0 -60.0 9.99999999999997
    vertex 0.0 0.0 0.0
  endloop
endfacet
facet normal -1.0 0.0 0.0
  outer loop
    vertex 0.0 0.0 0.0
    vertex 0.0 -60.0 9.99999999999997
    vertex 0.0 -5.000000000000013 9.999999999999996
  endloop
endfacet
facet normal -1.0 0.0 0.0
  outer loop
    vertex 0.0 0.0 0.0
    vertex 0.0 -5.000000000000013 9.999999999999996
    vertex 0.0 -3.3839597790574766e-14 54.99999999999999
  endloop
endfacet
facet normal -8.244332998057824e-33 -5.639932965095794e-16 1.0
  outer loop
    vertex 100.0 -25.00000000000003 34.999999999999964
    vertex 30.000000000000014 -5.000000000000025 34.99999999999998
    vertex 30.000000000000014 -25.00000000000003 34.999999999999964
  endloop
endfacet
facet normal -8.244332998057824e-33 -5.639932965095794e-16 1.0
  outer loop
    vertex 30.000000000000014 -5.000000000000025 34.99999999999998
    vertex 100.0 -25.00000000000003 34.999999999999964
    vertex 100.0 -5.000000000000025 34.99999999999998
  endloop
endfacet
facet normal -0.6087614290087221 3.523196580218421e-16 -0.7933533402912343
  outer loop
    vertex 18.53553390593274 -1.127986593019159e-14 23.53553390593273
    vertex 18.500000000000007 -1.0000000000000207 23.56280003094323
    vertex 18.500000000000007 -1.127986593019159e-14 23.56280003094323
  endloop
endfacet
facet normal -0.6087614290087221 3.523196580218421e-16 -0.7933533402912343
  outer loop
    vertex 18.500000000000007 -1.0000000000000207 23.56280003094323
    vertex 17.500000000000004 -5.000000000000013 24.33012701892219
    vertex 17.500000000000004 -1.0000000000000207 24.33012701892219
  endloop
endfacet
facet normal -0.6087614290087221 3.523196580218421e-16 -0.7933533402912343
  outer loop
    vertex 17.500000000000004 -5.000000000000013 24.33012701892219
    vertex 18.500000000000007 -1.0000000000000207 23.56280003094323
    vertex 18.53553390593274 -5.000000000000013 23.53553390593273
  endloop
endfacet
facet normal -0.6087614290087221 3.523196580218421e-16 -0.7933533402912343
  outer loop
    vertex 18.53553390593274 -5.000000000000013 23.53553390593273
    vertex 18.500000000000007 -1.0000000000000207 23.56280003094323
    vertex 18.53553390593274 -1.127986593019159e-14 23.53553390593273
  endloop
endfacet
facet normal 0.0 4.440892098500626e-16 -1.0
  outer loop
    vertex 17.5 -1.0000000000000207 35.0
    vertex 12.500000000000005 -5.000000000000025 35.0
    vertex 12.500000000000005 -1.0000000000000207 35.0
  endloop
endfacet
facet normal 0.0 4.440892098500626e-16 -1.0
  outer loop
    vertex 12.500000000000005 -5.000000000000025 35.0
    vertex 17.5 -1.0000000000000207 35.0
    vertex 17.5 -5.000000000000025 35.0
  endloop
endfacet
facet normal 0.38268343236508984 -4.1028493158958256e-16 0.9238795325112867
  outer loop
    vertex 13.705904774487399 -5.000000000000013 15.170370868554654
    vertex 12.500000000000004 -1.127986593019159e-14 15.669872981077807
    vertex 12.500000000000004 -5.000000000000013 15.669872981077802
  endloop
endfacet
facet normal 0.38268343236508984 -4.1028493158958256e-16 0.9238795325112867
  outer loop
    vertex 12.500000000000004 -1.127986593019159e-14 15.669872981077807
    vertex 13.705904774487399 -5.000000000000013 15.170370868554654
    vertex 13.705904774487399 -1.127986593019159e-14 15.17037086855466
  endloop
endfacet
facet normal -0.7933533402912354 -2.7034438199567774e-16 0.6087614290087207
  outer loop
    vertex 19.330127018922195 -1.127986593019159e-14 17.499999999999996
    vertex 18.535533905932738 -5.000000000000013 16.464466094067255
    vertex 19.330127018922195 -5.000000000000013 17.499999999999996
  endloop
endfacet
facet normal -0.7933533402912354 -2.7034438199567774e-16 0.6087614290087207
  outer loop
    vertex 18.535533905932738 -5.000000000000013 16.464466094067255
    vertex 19.330127018922195 -1.127986593019159e-14 17.499999999999996
    vertex 18.535533905932738 -1.127986593019159e-14 16.464466094067262
  endloop
endfacet
facet normal 1.0 0.0 0.0
  outer loop
    vertex 130.0 -65.0 -2.8904656446115947e-14
    vertex 130.0 -60.000000000000014 24.999999999999954
    vertex 130.0 -65.00000000000001 24.99999999999995
  endloop
endfacet
facet normal 1.0 0.0 0.0
  outer loop
    vertex 130.0 -60.000000000000014 24.999999999999954
    vertex 130.0 -65.0 -2.8904656446115947e-14
    vertex 130.0 -60.0 9.99999999999997
  endloop
endfacet
facet normal 1.0 0.0 0.0
  outer loop
    vertex 130.0 -60.0 9.99999999999997
    vertex 130.0 -65.0 -2.8904656446115947e-14
    vertex 130.0 0.0 0.0
  endloop
endfacet
facet normal 1.0 0.0 0.0
  outer loop
    vertex 130.0 -60.0 9.99999999999997
    vertex 130.0 0.0 0.0
    vertex 130.0 -5.000000000000013 9.999999999999996
  endloop
endfacet
facet normal 1.0 0.0 0.0
  outer loop
    vertex 130.0 -5.000000000000013 9.999999999999996
    vertex 130.0 0.0 0.0
    vertex 130.0 -3.3839597790574766e-14 54.99999999999999
  endloop
endfacet
facet normal 1.0 0.0 0.0
  outer loop
    vertex 130.0 -3.3839597790574766e-14 54.99999999999999
    vertex 130.0 -5.000000000000025 54.99999999999999
    vertex 130.0 -5.000000000000013 9.999999999999996
  endloop
endfacet
facet normal 0.6087614290087197 3.523196580218429e-16 -0.7933533402912362
  outer loop
    vertex 11.500000000000005 -2.255973186038318e-14 23.56280003094323
    vertex 11.464466094067268 -5.000000000000013 23.535533905932734
    vertex 11.464466094067268 -1.127986593019159e-14 23.535533905932734
  endloop
endfacet
facet normal 0.6087614290087197 3.523196580218429e-16 -0.7933533402912362
  outer loop
    vertex 11.464466094067268 -5.000000000000013 23.535533905932734
    vertex 11.500000000000005 -2.255973186038318e-14 23.56280003094323
    vertex 11.500000000000005 -1.0000000000000207 23.56280003094323
  endloop
endfacet
facet normal 0.6087614290087197 3.523196580218429e-16 -0.7933533402912362
  outer loop
    vertex 11.464466094067268 -5.000000000000013 23.535533905932734
    vertex 11.500000000000005 -1.0000000000000207 23.56280003094323
    vertex 12.500000000000009 -5.000000000000013 24.33012701892219
  endloop
endfacet
facet normal 0.6087614290087197 3.523196580218429e-16 -0.7933533402912362
  outer loop
    vertex 12.500000000000009 -5.000000000000013 24.33012701892219
    vertex 11.500000000000005 -1.0000000000000207 23.56280003094323
    vertex 12.500000000000009 -1.0000000000000207 24.33012701892219
  endloop
endfacet
facet normal 1.4099832412739545e-16 -1.1279865930191583e-15 1.0
  outer loop
    vertex 20.000000000000007 -65.0 24.99999999999995
    vertex 7.04991620636974e-16 -60.000000000000014 24.999999999999957
    vertex 7.04991620636974e-16 -65.00000000000001 24.99999999999995
  endloop
endfacet
facet normal 1.4099832412739545e-16 -1.1279865930191583e-15 1.0
  outer loop
    vertex 7.04991620636974e-16 -60.000000000000014 24.999999999999957
    vertex 20.000000000000007 -65.0 24.99999999999995
    vertex 20.000000000000007 -60.0 24.999999999999954
  endloop
endfacet
facet normal 0.0 4.440892098500626e-16 -1.0
  outer loop
    vertex 0.0 0.0 0.0
    vertex 20.000000000000007 -31.000000000000004 -7.049916206369744e-16
    vertex 0.0 -65.0 -2.8904656446115947e-14
  endloop
endfacet
facet normal 0.0 4.440892098500626e-16 -1.0
  outer loop
    vertex 20.000000000000007 -31.000000000000004 -7.049916206369744e-16
    vertex 0.0 0.0 0.0
    vertex 130.0 0.0 0.0
  endloop
endfacet
facet normal 0.0 4.440892098500626e-16 -1.0
  outer loop
    vertex 20.000000000000007 -31.000000000000004 -7.049916206369744e-16
    vertex 130.0 0.0 0.0
    vertex 110.0 -31.000000000000004 -7.049916206369744e-16
  endloop
endfacet
facet normal 0.0 4.440892098500626e-16 -1.0
  outer loop
    vertex 110.0 -31.000000000000004 -7.049916206369744e-16
    vertex 130.0 0.0 0.0
    vertex 110.0 -48.00000000000001 -7.754907827006718e-15
  endloop
endfacet
facet normal 0.0 4.440892098500626e-16 -1.0
  outer loop
    vertex 0.0 -65.0 -2.8904656446115947e-14
    vertex 20.000000000000007 -48.00000000000001 -7.754907827006718e-15
    vertex 130.0 -65.0 -2.8904656446115947e-14
  endloop
endfacet
facet normal 0.0 4.440892098500626e-16 -1.0
  outer loop
    vertex 20.000000000000007 -48.00000000000001 -7.754907827006718e-15
    vertex 0.0 -65.0 -2.8904656446115947e-14
    vertex 20.000000000000007 -31.000000000000004 -7.049916206369744e-16
  endloop
endfacet
facet normal 0.0 4.440892098500626e-16 -1.0
  outer loop
    vertex 130.0 -65.0 -2.8904656446115947e-14
    vertex 20.000000000000007 -48.00000000000001 -7.754907827006718e-15
    vertex 110.0 -48.00000000000001 -7.754907827006718e-15
  endloop
endfacet
facet normal 0.0 4.440892098500626e-16 -1.0
  outer loop
    vertex 130.0 -65.0 -2.8904656446115947e-14
    vertex 110.0 -48.00000000000001 -7.754907827006718e-15
    vertex 130.0 0.0 0.0
  endloop
endfacet
facet normal -0.923879532511287 1.6994558310172248e-16 -0.3826834323650895
  outer loop
    vertex 19.330127018922198 -1.127986593019159e-14 22.499999999999996
    vertex 19.829629131445344 -5.000000000000013 21.2940952255126
    vertex 19.330127018922198 -5.000000000000013 22.499999999999996
  endloop
endfacet
facet normal -0.923879532511287 1.6994558310172248e-16 -0.3826834323650895
  outer loop
    vertex 19.829629131445344 -5.000000000000013 21.2940952255126
    vertex 19.330127018922198 -1.127986593019159e-14 22.499999999999996
    vertex 19.829629131445344 -1.127986593019159e-14 21.2940952255126
  endloop
endfacet
facet normal -1.0 -8.336049568342596e-17 -4.534728861100337e-16
  outer loop
    vertex 18.5 -2.255973186038318e-14 35.99999999999999
    vertex 18.500000000000007 -1.0000000000000207 23.56280003094323
    vertex 18.5 -1.0000000000000207 35.99999999999999
  endloop
endfacet
facet normal -1.0 -8.336049568342596e-17 -4.534728861100337e-16
  outer loop
    vertex 18.500000000000007 -1.0000000000000207 23.56280003094323
    vertex 18.5 -2.255973186038318e-14 35.99999999999999
    vertex 18.500000000000007 -1.127986593019159e-14 23.56280003094323
  endloop
endfacet
facet normal 1.0 8.336049568342609e-17 1.1813038926601945e-32
  outer loop
    vertex 11.500000000000005 -2.255973186038318e-14 23.56280003094323
    vertex 11.500000000000005 -1.0000000000000207 35.99999999999999
    vertex 11.500000000000005 -1.0000000000000207 23.56280003094323
  endloop
endfacet
facet normal 1.0 8.336049568342609e-17 1.1813038926601945e-32
  outer loop
    vertex 11.500000000000005 -1.0000000000000207 35.99999999999999
    vertex 11.500000000000005 -2.255973186038318e-14 23.56280003094323
    vertex 11.500000000000005 -2.255973186038318e-14 35.99999999999999
  endloop
endfacet
facet normal 0.0 3.1796624774546827e-16 -1.0
  outer loop
    vertex 18.5 -2.255973186038318e-14 35.99999999999999
    vertex 11.500000000000005 -1.0000000000000207 35.99999999999999
    vertex 11.500000000000005 -2.255973186038318e-14 35.99999999999999
  endloop
endfacet
facet normal 0.0 3.1796624774546827e-16 -1.0
  outer loop
    vertex 11.500000000000005 -1.0000000000000207 35.99999999999999
    vertex 18.5 -2.255973186038318e-14 35.99999999999999
    vertex 18.5 -1.0000000000000207 35.99999999999999
  endloop
endfacet
facet normal -8.336049568342607e-17 1.0 3.179662477454683e-16
  outer loop
    vertex 11.500000000000005 -1.0000000000000207 35.99999999999999
    vertex 12.500000000000009 -1.0000000000000207 24.33012701892219
    vertex 11.500000000000005 -1.0000000000000207 23.56280003094323
  endloop
endfacet
facet normal -8.336049568342607e-17 1.0 3.179662477454683e-16
  outer loop
    vertex 12.500000000000009 -1.0000000000000207 24.33012701892219
    vertex 11.500000000000005 -1.0000000000000207 35.99999999999999
    vertex 12.500000000000005 -1.0000000000000207 35.0
  endloop
endfacet
facet normal -8.336049568342607e-17 1.0 3.179662477454683e-16
  outer loop
    vertex 12.500000000000005 -1.0000000000000207 35.0
    vertex 11.500000000000005 -1.0000000000000207 35.99999999999999
    vertex 17.5 -1.0000000000000207 35.0
  endloop
endfacet
facet normal -8.336049568342607e-17 1.0 3.179662477454683e-16
  outer loop
    vertex 17.500000000000004 -1.0000000000000207 24.33012701892219
    vertex 18.5 -1.0000000000000207 35.99999999999999
    vertex 18.500000000000007 -1.0000000000000207 23.56280003094323
  endloop
endfacet
facet normal -8.336049568342607e-17 1.0 3.179662477454683e-16
  outer loop
    vertex 18.5 -1.0000000000000207 35.99999999999999
    vertex 17.500000000000004 -1.0000000000000207 24.33012701892219
    vertex 17.5 -1.0000000000000207 35.0
  endloop
endfacet
facet normal -8.336049568342607e-17 1.0 3.179662477454683e-16
  outer loop
    vertex 18.5 -1.0000000000000207 35.99999999999999
    vertex 17.5 -1.0000000000000207 35.0
    vertex 11.500000000000005 -1.0000000000000207 35.99999999999999
  endloop
endfacet
endsolid Arris_bracket
